<svg xmlns="http://www.w3.org/2000/svg" width="250" height="256" fill="none" xmlns:v="https://vecta.io/nano"><style><![CDATA[.M{fill:#d46919}.N{fill:#e0a78f}.O{stroke-width:.66}.P{stroke-linecap:round}.Q{stroke-linejoin:round}.R{stroke:#b9635e}]]></style><g clip-path="url(#C)"><path d="M246.925 153.076c15.212-67.574-27.044-134.73-94.383-149.995S18.283 30.219 3.07 97.794s27.044 134.729 94.383 149.995 134.259-27.139 149.472-94.713z" fill="#fff"/><mask id="A" maskUnits="userSpaceOnUse" x="-1" y="-1" width="252" height="252"><path d="M246.925 153.076c15.212-67.574-27.044-134.73-94.383-149.995S18.283 30.219 3.07 97.794s27.044 134.729 94.383 149.995 134.259-27.139 149.472-94.713z" fill="#fff"/></mask><g mask="url(#A)"><path d="M87.681 61.986s-5.638 32.302-44.393 55.775C1.967 142.786 25.512 222.3 97.873 224.074c78.595 1.886 118.545-96.64 73.112-177.13L87.681 61.986z" class="M"/><path d="M218.208 200.336c-4.045-10.826-16.426-25.047-40.391-28.841l-44.681-8.874-44.703 8.896c-23.965 3.772-36.346 17.993-40.392 28.841l-9.352 42.397H79.7l2.985 3.505 49.743 9.829 51.137-13.312h43.995l-9.352-42.441z" fill="#fff"/><path d="M87.063 171.983l48.462-9.873 45.189 9.718-.995.732c-27.613 19.967-64.799 19.035-92.655-.577zm21.908-71.926c.094 2.59-.579 5.15-1.933 7.356a13.08 13.08 0 0 1-5.678 5.04 13.03 13.03 0 0 1-7.511 1.029 13.05 13.05 0 0 1-6.816-3.33c-1.894-1.761-3.226-4.047-3.826-6.567a13.16 13.16 0 0 1 .451-7.594 13.11 13.11 0 0 1 4.577-6.064c2.089-1.523 4.582-2.391 7.162-2.493 3.466-.126 6.841 1.132 9.385 3.498s4.051 5.648 4.189 9.126z" class="N"/><path d="M88.432 98.792s5.173-2.596 10.236 6.412" class="O P Q R"/><path d="M156.703 99.835a13.16 13.16 0 0 0 2.301 7.261 13.1 13.1 0 0 0 5.931 4.758 13.04 13.04 0 0 0 7.565.652 13.07 13.07 0 0 0 6.653-3.672c1.807-1.857 3.026-4.21 3.501-6.761s.188-5.187-.828-7.574-2.714-4.419-4.88-5.838a13.05 13.05 0 0 0-7.288-2.137c-1.723.014-3.427.371-5.012 1.049s-3.022 1.664-4.226 2.901-2.153 2.701-2.791 4.308a13.14 13.14 0 0 0-.926 5.053z" class="N"/><path d="M177.13 97.617s-5.283-2.218-9.882 6.966" class="O P Q R"/><path d="M132.581 110.4c24.846-.257 44.794-19.327 44.556-42.594s-20.574-41.92-45.421-41.663-44.794 19.326-44.555 42.593 20.574 41.92 45.42 41.664z" class="M"/><path d="M145.736 126.236c-3.095 2.926-6.75 5.19-10.744 6.656-5.151 1.331-10.214-2.552-10.281-2.596l-6.079-4.437-1.968 43.195.663.71c8.844 9.363 21.49 9.363 30.222 0l1.283-1.375-3.096-42.153z" class="N"/><path d="M114.498 120.113s7.517 25.158 20.472 24.781c10.634-.31 13.265-23.872 13.265-23.872l-33.737-.909z" fill="#1e0b02"/><path d="M167.89 75.275c.162 11.84-1.07 23.658-3.67 35.209-1.945 8.541-7.649 14.576-15.785 19.479l-1.481.91c-4.335 2.56-9.248 3.971-14.276 4.099s-10.007-1.031-14.465-3.367c-8.843-4.77-15.277-11.093-17.333-20.278a219.94 219.94 0 0 1-4.422-34.942s-3.382-38.381 35.13-38.27 36.302 37.161 36.302 37.161z" class="N"/><path d="M129.289 95.309l.066 5.546 3.781-.044" class="O P Q R"/><path d="M102.936 75.631l20.339-2.063s-1.879-5.258-10.103-4.326-10.236 6.389-10.236 6.389zm55.977-.577l-20.384-1.642s1.769-5.302 10.015-4.437 10.369 6.079 10.369 6.079z" class="M"/><path d="M118.875 87.899a3.14 3.14 0 0 1-.513 1.742 3.12 3.12 0 0 1-1.391 1.162 3.11 3.11 0 0 1-3.402-.654 3.13 3.13 0 0 1-.864-1.596c-.124-.606-.067-1.235.165-1.809s.627-1.065 1.138-1.412a3.11 3.11 0 0 1 1.728-.54c.409-.003.815.075 1.194.23a3.1 3.1 0 0 1 1.016.671c.292.288.524.632.683 1.01s.243.785.246 1.195zm30.576-.332c.009.62-.166 1.228-.502 1.748a3.12 3.12 0 0 1-1.386 1.172 3.11 3.11 0 0 1-1.802.2c-.607-.114-1.166-.406-1.608-.84a3.13 3.13 0 0 1-.87-1.595c-.127-.606-.071-1.237.161-1.811a3.14 3.14 0 0 1 1.137-1.416 3.11 3.11 0 0 1 1.731-.541 3.13 3.13 0 0 1 2.196.899c.587.576.926 1.361.943 2.185z" fill="#1e0b02"/><path d="M119.893 108.82s8.71 4.637 22.616-.244" stroke="#000" class="O P Q"/><path d="M167.801 66.557s-56.664 2.707-54.608-30.661c0 0 49.257-14.576 54.608 30.661z" class="M"/><path d="M95.551 67.311s19.897-8.564 19.632-29.041c0 0-20.406 2.574-19.632 29.041z" class="M"/><mask id="B" maskUnits="userSpaceOnUse" x="38" y="171" width="190" height="73"><path d="M218.208 200.647c-3.891-10.516-15.475-24.183-37.738-28.598l-.752.533c-27.613 20.167-64.755 19.257-92.656-.577l1.393-.466c-23.965 3.727-36.346 18.17-40.392 29.108l-9.374 42.862H227.56l-9.352-42.862z" fill="#fff"/></mask><g mask="url(#B)"><path d="M33.273 176.73h198.333M33.273 187.113h198.333M33.273 197.519h198.333M33.273 207.901h198.333M33.273 218.284h198.333M33.273 228.689h198.333M33.273 239.072h198.333" stroke="#ef758d" stroke-miterlimit="10"/></g></g></g><defs><clipPath id="C"><path fill="#fff" d="M0 0h250v256H0z"/></clipPath></defs></svg>