<svg xmlns="http://www.w3.org/2000/svg" width="250" height="254" fill="none" xmlns:v="https://vecta.io/nano"><style><![CDATA[.M{fill:#1e0b02}.N{fill:#e8b499}.O{stroke:#c47268}.P{stroke-width:.69}.Q{stroke-linecap:round}.R{stroke-linejoin:round}]]></style><g clip-path="url(#B)"><path d="M246.925 152.834c15.212-67.468-27.044-134.516-94.383-149.758S18.283 30.172 3.07 97.639s27.044 134.517 94.383 149.758 134.259-27.096 149.472-94.563z" fill="#fff"/><mask id="A" maskUnits="userSpaceOnUse" x="-1" y="-1" width="252" height="252"><path d="M246.925 152.834c15.212-67.468-27.044-134.516-94.383-149.758S18.283 30.172 3.07 97.639s27.044 134.517 94.383 149.758 134.259-27.096 149.472-94.563z" fill="#fff"/></mask><g mask="url(#A)"><path d="M100.061 18.651s17.554-23.812 48.638-7.93c34.113 17.41 15.675 54.955 15.675 54.955l-73.267-13.91 8.954-33.115z" class="M"/><path d="M85.404 65.854s-19.079-37.722 14.658-47.203l6.057 20.223-20.715 26.979z" class="M"/><path d="M101.698 83.264c.069 2.697-.662 5.353-2.099 7.634s-3.517 4.084-5.976 5.181-5.188 1.439-7.842.983a13.61 13.61 0 0 1-7.066-3.545 13.65 13.65 0 0 1-3.912-6.88 13.67 13.67 0 0 1 .56-7.898 13.64 13.64 0 0 1 4.844-6.256 13.6 13.6 0 0 1 7.496-2.508c1.791-.053 3.575.249 5.249.889s3.206 1.606 4.506 2.841 2.345 2.715 3.072 4.356 1.124 3.409 1.167 5.204z" class="N"/><path d="M80.318 81.736s5.416-2.636 10.568 6.778" class="O P Q R"/><path d="M151.396 83.64a13.66 13.66 0 0 0 2.296 7.581 13.62 13.62 0 0 0 6.112 5.025c2.488 1.033 5.226 1.303 7.868.777a13.61 13.61 0 0 0 6.973-3.734c1.905-1.908 3.202-4.34 3.727-6.986s.256-5.39-.775-7.884a13.64 13.64 0 0 0-5.016-6.124 13.6 13.6 0 0 0-7.566-2.3 13.61 13.61 0 0 0-9.63 3.996 13.66 13.66 0 0 0-3.989 9.648z" class="N"/><path d="M172.687 81.514s-5.483-2.481-10.369 7.088" class="O P Q R"/><path d="M144.013 115.183c-4.47 3.055-9.438 5.304-14.68 6.645-4.809.62-9.687-.361-13.884-2.791l-8.18-4.696-3.361 44.965.885.731c5.77 4.791 13.015 7.437 20.509 7.489s14.775-2.491 20.612-7.201l1.746-1.417-3.647-43.725z" class="N"/><path d="M103.908 109.645s7.65 25.03 25.204 24.764c14.436-.221 16.802-24.764 16.802-24.764h-42.006z" class="M"/><path d="M163.313 59.807a171.34 171.34 0 0 1-4.134 38.298c-2.211 9.259-10.236 15.749-18.77 20.998l-1.547.953c-9.021 5.56-16.471 5.737-25.668.487-9.286-5.316-17.93-12.338-19.898-22.15-2.375-12.55-3.78-25.266-4.201-38.033 0 0-5.394-41.82 34.71-41.266s39.507 40.713 39.507 40.713z" class="N"/><path d="M112.066 72.122a3.25 3.25 0 0 1-1.991 3.024 3.24 3.24 0 0 1-1.879.194 3.25 3.25 0 0 1-1.67-.886 3.26 3.26 0 0 1 .482-5.016 3.25 3.25 0 0 1 4.099.395 3.26 3.26 0 0 1 .959 2.288zm31.858 0c.004.645-.183 1.277-.537 1.815a3.26 3.26 0 0 1-1.454 1.209 3.24 3.24 0 0 1-3.549-.692c-.457-.454-.769-1.035-.896-1.667s-.064-1.288.181-1.884.662-1.106 1.197-1.465 1.164-.55 1.808-.55c.858 0 1.681.34 2.29.946a3.26 3.26 0 0 1 .96 2.288z" class="M"/><path d="M121.793 80.65v5.205h4.223" class="O P Q R"/><path d="M96.723 58.389l21.201-1.927s-1.901-5.493-10.457-4.607-10.744 6.534-10.744 6.534zm54.673 0l-21.224-1.927s1.901-5.493 10.479-4.607 10.745 6.534 10.745 6.534z" fill="#000"/><path d="M114.541 93.276h20.914s-.972 6.402-10.766 6.402-10.148-6.402-10.148-6.402z" fill="#fff"/><path d="M90.29 80.008l.929-52.563s-18.085 16.857-.929 52.563zm71.497-.266l-2.609-55.576s17.288 17.3 2.609 55.576z" class="M"/><path d="M107.092 22.926s-12.447 3.367-12.027 15.505-7.848 24.366-7.848 24.366L83.458 50.57s-2.918-22.793 23.634-27.644z" class="M"/><path d="M103.909 23.945s9.307-5.294 18.571 6.357c7.959 9.946 28.762 20.201 41.121 10.433 0 0-7.871-28.153-38.513-27.6s-21.179 10.81-21.179 10.81z" class="M"/><path d="M230.765 254H19.897c3.847-15.993 7.804-30.213 11.717-41.289 5.792-16.347 14.127-25.916 21.025-31.365a36.54 36.54 0 0 1 12.314-6.844l14.636-6.158h92.589l13.53 6.158s21.755 5.493 33.34 38.143c3.913 11.075 7.87 25.362 11.717 41.355z" fill="#ef758d"/><path d="M126.966 148.83l45.189 19.625s-46.427 41.975-92.567-.111l47.378-19.514z" class="N"/><path d="M79.588 168.344a62.96 62.96 0 0 0 21.125 14.311 62.84 62.84 0 0 0 25.059 4.738 63.81 63.81 0 0 0 25.146-4.731c7.978-3.258 15.217-8.098 21.281-14.23" stroke="#fff" stroke-width="1.94" stroke-miterlimit="10"/></g></g><defs><clipPath id="B"><path fill="#fff" d="M0 0h250v254H0z"/></clipPath></defs></svg>