<svg width="94" height="59" viewBox="0 0 94 59" fill="none" xmlns="http://www.w3.org/2000/svg">
<rect width="94" height="58.1091" rx="5.5" fill="white"/>
<path d="M0 49.5645H94V52.6099C94 55.6475 91.5376 58.1099 88.5 58.1099H5.5C2.46244 58.1099 0 55.6475 0 52.6099V49.5645Z" fill="#EE5151"/>
<rect y="35.8906" width="94" height="8.54545" fill="#EE5151"/>
<rect y="22.2188" width="94" height="8.54545" fill="#EE5151"/>
<rect y="8.54492" width="94" height="8.54545" fill="#EE5151"/>
<path d="M3.41413 1.5964C4.44438 0.573832 5.83709 0 7.28865 0H87.8576C89.4233 0 90.9147 0.667248 91.9581 1.83451L93 3H2L3.41413 1.5964Z" fill="#EE5151"/>
<path d="M0 5.5C0 2.46244 2.46243 0 5.5 0H56.4V30.7636H0V5.5Z" fill="#384285"/>
</svg>
