<svg width="251" height="375" viewBox="0 0 251 375" fill="none" xmlns="http://www.w3.org/2000/svg">
<path d="M126.006 258.435L133.702 250.79H241.393L249.089 258.435V366.228L241.393 373.873H133.702L126.006 366.228V258.435Z" fill="#AF87F6" stroke="#826EA8" stroke-width="2"/>
<path d="M126.154 133.667L133.85 126.021L241.541 126.021L249.237 133.667V241.459L241.541 249.104H133.85L126.154 241.459V133.667Z" fill="#AF87F6" stroke="#826EA8" stroke-width="2"/>
<path d="M126.154 8.89817L133.85 1.25289L241.541 1.25289L249.237 8.89817V116.69L241.541 124.336H133.85L126.154 116.69V8.89817Z" fill="#AF87F6" stroke="#826EA8" stroke-width="2"/>
<path d="M1.38574 258.435L9.08165 250.79H116.773L124.469 258.435L124.469 366.228L116.773 373.873H9.08165L1.38574 366.228L1.38574 258.435Z" fill="#AF87F6" stroke="#826EA8" stroke-width="2"/>
</svg>
