<svg xmlns="http://www.w3.org/2000/svg" width="551" height="661" fill="none"><style>.B{stroke-width:2}.C{stroke:#f0e8ff}</style><g fill="#ffa360" class="B C"><path d="M219.575 551.024v108.023H110.824V551.024zM328.869 551.024v108.023H220.118V551.024zM219.575 441.001v108.023H110.824V441.001zM219.083 331v108.023H110.332V331z"/></g><g fill="#83bbd3" class="B C"><path d="M330.243 441.024v108.023H221.492V441.024zM440.752 331v108.023H332.001V331zM330.243 331.001v108.023H221.492V331.001zM329.751 221v108.023H221V221z"/></g><g fill="#fbd73a" class="B C"><path d="M440.244 551.025v108.023H331.493V551.025zM549.537 551.025v108.023H440.786V551.025zM440.244 441.002v108.023H331.493V441.002zM549.752 441v108.023H441.001V441z"/></g><g fill="#af87f6" class="B C"><path d="M110.294 109.022V.999h108.751v108.023zM1 109.022V.999h108.751v108.023zM110.294 219.045V111.022h108.751v108.023zM110.294 329.068V221.045h108.751v108.023z"/></g></svg>