<svg width="551" height="661" viewBox="0 0 551 661" fill="none" xmlns="http://www.w3.org/2000/svg">
<rect x="219.575" y="551.024" width="108.023" height="108.751" transform="rotate(90 219.575 551.024)" fill="#FFA360" stroke="#F0E8FF" stroke-width="2"/>
<rect x="328.869" y="551.024" width="108.023" height="108.751" transform="rotate(90 328.869 551.024)" fill="#FFA360" stroke="#F0E8FF" stroke-width="2"/>
<rect x="219.575" y="441.001" width="108.023" height="108.751" transform="rotate(90 219.575 441.001)" fill="#FFA360" stroke="#F0E8FF" stroke-width="2"/>
<rect x="219.083" y="331" width="108.023" height="108.751" transform="rotate(90 219.083 331)" fill="#FFA360" stroke="#F0E8FF" stroke-width="2"/>
<rect x="330.243" y="441.024" width="108.023" height="108.751" transform="rotate(90 330.243 441.024)" fill="#83BBD3" stroke="#F0E8FF" stroke-width="2"/>
<rect x="440.752" y="331" width="108.023" height="108.751" transform="rotate(90 440.752 331)" fill="#83BBD3" stroke="#F0E8FF" stroke-width="2"/>
<rect x="330.243" y="331.001" width="108.023" height="108.751" transform="rotate(90 330.243 331.001)" fill="#83BBD3" stroke="#F0E8FF" stroke-width="2"/>
<rect x="329.751" y="221" width="108.023" height="108.751" transform="rotate(90 329.751 221)" fill="#83BBD3" stroke="#F0E8FF" stroke-width="2"/>
<rect x="440.244" y="551.025" width="108.023" height="108.751" transform="rotate(90 440.244 551.025)" fill="#FBD73A" stroke="#F0E8FF" stroke-width="2"/>
<rect x="549.537" y="551.025" width="108.023" height="108.751" transform="rotate(90 549.537 551.025)" fill="#FBD73A" stroke="#F0E8FF" stroke-width="2"/>
<rect x="440.244" y="441.002" width="108.023" height="108.751" transform="rotate(90 440.244 441.002)" fill="#FBD73A" stroke="#F0E8FF" stroke-width="2"/>
<rect x="549.752" y="441" width="108.023" height="108.751" transform="rotate(90 549.752 441)" fill="#FBD73A" stroke="#F0E8FF" stroke-width="2"/>
<rect x="110.294" y="109.022" width="108.023" height="108.751" transform="rotate(-90 110.294 109.022)" fill="#AF87F6" stroke="#F0E8FF" stroke-width="2"/>
<rect x="1" y="109.022" width="108.023" height="108.751" transform="rotate(-90 1 109.022)" fill="#AF87F6" stroke="#F0E8FF" stroke-width="2"/>
<rect x="110.294" y="219.045" width="108.023" height="108.751" transform="rotate(-90 110.294 219.045)" fill="#AF87F6" stroke="#F0E8FF" stroke-width="2"/>
<rect x="110.294" y="329.068" width="108.023" height="108.751" transform="rotate(-90 110.294 329.068)" fill="#AF87F6" stroke="#F0E8FF" stroke-width="2"/>
</svg>
