<svg xmlns="http://www.w3.org/2000/svg" width="40" height="40" fill="none"><path fill="#E2D2FF" d="M38.039 21.813h-2.502a1.582 1.582 0 0 0-1.13.488 1.615 1.615 0 0 0-.454 1.155v14.887c.008.427-.15.84-.442 1.15-.29.31-.69.492-1.113.507h-6.291a1.498 1.498 0 0 1-1.079-.443 1.531 1.531 0 0 1-.448-1.086V28.3a1.543 1.543 0 0 0-.448-1.086 1.512 1.512 0 0 0-1.079-.442h-6.475a1.498 1.498 0 0 0-1.079.442 1.53 1.53 0 0 0-.448 1.086v10.172a1.543 1.543 0 0 1-.448 1.086 1.513 1.513 0 0 1-1.079.443h-6.29a1.604 1.604 0 0 1-1.114-.507c-.291-.31-.45-.723-.442-1.15V23.456a1.63 1.63 0 0 0-.448-1.15 1.599 1.599 0 0 0-1.121-.493H1.592a1.643 1.643 0 0 1-.897-.308 1.67 1.67 0 0 1-.582-.755 1.688 1.688 0 0 1 .376-1.794L17.64.941A3.012 3.012 0 0 1 19.815 0a2.984 2.984 0 0 1 2.177.94l17.149 18.045a1.678 1.678 0 0 1 .347 1.772 1.669 1.669 0 0 1-.571.743 1.643 1.643 0 0 1-.879.313Z"/></svg>