<svg xmlns="http://www.w3.org/2000/svg" width="40" height="39" fill="none"><path stroke="#E2D2FF" stroke-width="2" d="m8.233 9.728 2.532.293-1.869 1.722-.015.014-.014.015c-.24.24-.587.742-.438 1.387l.51 2.476-2.2-1.246-.022-.013-.024-.011a1.536 1.536 0 0 0-1.4 0l-.023.011-.022.013-2.2 1.246.513-2.491.02-.1v-.102c0-.322-.08-.79-.46-1.17l-.015-.015-.015-.014-1.874-1.726 2.533-.294.064-.007.063-.016c.404-.1.796-.347 1.031-.818l.007-.014.007-.015 1.05-2.281 1.024 2.224c.187.535.69.9 1.237.932ZM1.981 21.32c0-.33.075-.572.146-.7h7.519c.07.128.145.37.145.7v15.238c0 .331-.075.573-.145.7H2.127c-.07-.127-.146-.369-.146-.7V21.321Zm7.617-.77.007.006a.036.036 0 0 1-.007-.007Zm0 16.78.007-.008a.03.03 0 0 1-.007.008Zm-7.423 0-.007-.008a.034.034 0 0 1 .007.008Zm-.007-16.774.007-.007-.007.007ZM19.999 1.264l1.024 2.224c.186.536.69.9 1.237.932l2.531.294-1.869 1.722-.015.014-.014.014c-.24.24-.586.743-.438 1.387l.51 2.477-2.2-1.247-.022-.012-.023-.012a1.536 1.536 0 0 0-1.4 0l-.023.012-.023.012-2.2 1.247.513-2.492.021-.1v-.101c0-.323-.081-.79-.461-1.17l-.015-.015-.015-.014-1.873-1.727 2.532-.293.065-.008.063-.015c.403-.101.795-.347 1.03-.818l.008-.015.006-.014 1.05-2.282ZM24.505 16.134l-.002.026v20.627c0 .229-.067.383-.12.455a.329.329 0 0 1-.012.016h-8.524a.329.329 0 0 1-.013-.016c-.052-.072-.12-.226-.12-.455v-20.6c0-.23.068-.384.12-.456a.336.336 0 0 1 .013-.016h8.546l.012.016c.052.07.11.21.1.403Zm-.152 21.143.002-.001-.002.001Zm-8.488 0-.002-.001a.01.01 0 0 1 .002.001Zm0-21.581-.002.002.002-.002Zm8.504-.005.005.003-.005-.003ZM34.026 9.183l1.024 2.224c.187.536.69.9 1.237.932l2.532.294-1.87 1.722-.014.014-.015.014c-.24.24-.586.743-.437 1.387l.51 2.477-2.2-1.247-.023-.012-.023-.012a1.536 1.536 0 0 0-1.4 0l-.023.012-.023.012-2.2 1.247.514-2.492.02-.1v-.101c0-.323-.081-.79-.461-1.17l-.014-.015-.015-.014-1.874-1.727 2.532-.293.065-.008.063-.015c.404-.101.796-.348 1.03-.818l.008-.015.007-.014 1.05-2.282ZM38.237 24.372v12.035c0 .38-.089.66-.177.812a.776.776 0 0 1-.024.04H29.65a.776.776 0 0 1-.024-.04c-.088-.151-.177-.433-.177-.812V24.413c0-.379.089-.66.177-.812a.825.825 0 0 1 .024-.038h8.401c.01.012.02.028.032.049.086.143.17.408.155.76Zm-.24 12.934.009-.008-.009.008Zm-8.31 0-.008-.008a.032.032 0 0 1 .009.008Zm0-13.791-.008.007c.006-.006.009-.008.009-.007Zm8.328.008.009.008-.01-.008Z"/></svg>