<svg width="70" height="50" viewBox="0 0 70 50" fill="none" xmlns="http://www.w3.org/2000/svg">
<path d="M6.61952 1H68.73L63.1349 7.773H1L6.61952 1Z" fill="#E2D2FF"/>
<rect x="1" y="7.77344" width="62.135" height="20.6135" fill="#E2D2FF"/>
<rect x="21.6133" y="28.3867" width="20.6135" height="20.6135" fill="#E2D2FF"/>
<path d="M42.2266 28.3867H47.7496V42.2502L42.2266 49.0002V28.3867Z" fill="#E2D2FF"/>
<path d="M63.1348 28.3865V7.7454L68.7299 1V21.6135L63.1348 28.3865Z" fill="#E2D2FF"/>
<path d="M1 7.75V28.375H21.75M1 7.75L63.125 7.875M1 7.75L6.625 1H68.875M63.125 28.375V7.875M63.125 28.375L68.75 21.625L68.875 1M63.125 28.375H42.125M63.125 7.875L68.875 1" stroke="#8456D6"/>
<path d="M21.625 28.2607V49.0002H42.25M42.25 49.0002V28.2607M42.25 49.0002L47.75 42.2502V28.3752" stroke="#8456D6"/>
</svg>
