<svg xmlns="http://www.w3.org/2000/svg" width="70" height="50" fill="none"><path fill="#E2D2FF" d="M6.62 1h62.11l-5.595 6.773H1L6.62 1ZM1 7.773h62.135v20.613H1zM21.613 28.387h20.613V49H21.613zM42.227 28.387h5.523V42.25L42.227 49V28.387Z"/><path fill="#E2D2FF" d="M63.135 28.387V7.745L68.73 1v20.613l-5.595 6.774Z"/><path stroke="#8456D6" d="M1 7.75v20.625h20.75M1 7.75l62.125.125M1 7.75 6.625 1h62.25m-5.75 27.375v-20.5m0 20.5 5.625-6.75L68.875 1m-5.75 27.375h-21m21-20.5L68.875 1"/><path stroke="#8456D6" d="M21.625 28.26V49H42.25m0 0V28.26m0 20.74 5.5-6.75V28.375"/></svg>