<svg xmlns="http://www.w3.org/2000/svg" width="40" height="40" fill="none"><path fill="#000" d="M0 4a4 4 0 0 1 4-4h16a4 4 0 0 1 4 4v6.667a1.333 1.333 0 1 1-2.667 0V4c0-.736-.597-1.333-1.333-1.333H4c-.736 0-1.333.597-1.333 1.333v32c0 .736.597 1.333 1.333 1.333h16c.736 0 1.333-.597 1.333-1.333v-6.667a1.333 1.333 0 0 1 2.667 0V36a4 4 0 0 1-4 4H4a4 4 0 0 1-4-4V4Z"/><path fill="#000" d="M28.445 28.667a1.333 1.333 0 0 0 2.264.954l8.89-8.666a1.333 1.333 0 0 0 0-1.91l-8.89-8.666a1.334 1.334 0 0 0-2.264.954v7.334H8.667a1.333 1.333 0 0 0 0 2.666h19.778v7.334Z"/></svg>