<svg width="360" height="450" viewBox="0 0 360 450" fill="none" xmlns="http://www.w3.org/2000/svg">
<path d="M270.5 274.207L274.207 270.5H355.793L359.5 274.207V355.793L355.793 359.5H274.207L270.5 355.793V274.207Z" fill="#FBD73A" stroke="white"/>
<path d="M270.5 184.207L274.207 180.5H355.793L359.5 184.207V265.793L355.793 269.5H274.207L270.5 265.793V184.207Z" fill="#FBD73A" stroke="white"/>
<path d="M180.5 184.207L184.207 180.5H265.793L269.5 184.207V265.793L265.793 269.5H184.207L180.5 265.793V184.207Z" fill="#E2D2FF" stroke="white"/>
<path d="M270.5 94.2071L274.207 90.5H355.793L359.5 94.2071V175.793L355.793 179.5H274.207L270.5 175.793V94.2071Z" fill="#E2D2FF" stroke="white"/>
<path d="M180.5 94.2071L184.207 90.5H265.793L269.5 94.2071V175.793L265.793 179.5H184.207L180.5 175.793V94.2071Z" fill="#E2D2FF" stroke="white"/>
<path d="M270.5 4.20711L274.207 0.5H355.793L359.5 4.20711V85.7929L355.793 89.5H274.207L270.5 85.7929V4.20711Z" fill="#E2D2FF" stroke="white"/>
<path d="M180.5 364.207L184.207 360.5H265.793L269.5 364.207V445.793L265.793 449.5H184.207L180.5 445.793V364.207Z" fill="#FBD73A" stroke="white"/>
<path d="M180.5 274.207L184.207 270.5H265.793L269.5 274.207V355.793L265.793 359.5H184.207L180.5 355.793V274.207Z" fill="#AF87F6" stroke="white"/>
<path d="M90.5 274.207L94.2071 270.5H175.793L179.5 274.207V355.793L175.793 359.5H94.2071L90.5 355.793V274.207Z" fill="#AF87F6" stroke="white"/>
<path d="M90.5 364.207L94.2071 360.5H175.793L179.5 364.207V445.793L175.793 449.5H94.2071L90.5 445.793V364.207Z" fill="#AF87F6" stroke="white"/>
<path d="M0.5 364.207L4.20711 360.5H85.7929L89.5 364.207V445.793L85.7929 449.5H4.20711L0.5 445.793V364.207Z" fill="#AF87F6" stroke="white"/>
<path d="M270.5 364.207L274.207 360.5H355.793L359.5 364.207V445.793L355.793 449.5H274.207L270.5 445.793V364.207Z" fill="#FBD73A" stroke="white"/>
</svg>
