<svg width="535" height="484" viewBox="0 0 535 484" fill="none" xmlns="http://www.w3.org/2000/svg">
<path d="M27.8415 268.607C7.12656 250.037 -5.41654 220.506 2.29183 193.83C19.6876 218.55 45.3008 236.344 74.5998 244.063C85.91 247 98.7967 249.093 105.678 258.504C109.959 264.36 110.954 272.098 109.94 279.271C108.927 286.444 106.094 293.219 103.286 299.901L103.435 301.704C76.0791 296.402 48.5565 287.178 27.8415 268.607Z" fill="#83BBD3"/>
<path d="M2.87079 193.915C8.13567 216.037 20.5299 236.627 37.9211 251.404C41.6811 254.598 45.7744 257.513 50.3659 259.398C54.8557 261.2 59.7481 261.772 64.5349 261.055C69.0117 260.475 73.5235 259.365 78.0638 259.879C82.8495 260.421 86.8477 263.093 89.6408 266.939C93.0582 271.644 94.5743 277.293 95.8642 282.868C97.2964 289.057 98.6855 295.509 102.788 300.568C103.285 301.181 102.301 301.914 101.805 301.302C94.667 292.5 95.6435 280.317 90.4738 270.591C88.0615 266.053 84.2616 262.211 79.0278 261.258C74.4512 260.424 69.7976 261.564 65.2699 262.19C60.5157 262.848 55.9161 262.689 51.3551 261.084C46.6894 259.443 42.4731 256.681 38.6476 253.596C30.0253 246.536 22.5711 238.17 16.5579 228.804C9.63563 218.152 4.59369 206.399 1.65024 194.054C1.46837 193.289 2.69012 193.155 2.87079 193.915Z" fill="white"/>
<path d="M32.0139 246.896C29.0866 249.472 25.3356 250.927 21.4306 251.002C17.5256 251.077 13.7209 249.767 10.696 247.306C10.0857 246.806 10.8372 245.838 11.4483 246.339C14.2608 248.636 17.805 249.856 21.4412 249.778C25.0774 249.701 28.5661 248.331 31.2776 245.917C31.8675 245.393 32.6004 246.375 32.0139 246.896Z" fill="white"/>
<path d="M62.3035 261.647C62.8684 253.714 60.4107 245.861 55.4206 239.653C54.9257 239.038 55.9095 238.305 56.4038 238.919C61.5845 245.389 64.1254 253.567 63.5193 261.821C63.461 262.608 62.2455 262.429 62.3035 261.647Z" fill="white"/>
<path d="M11.2419 217.883C12.5829 217.121 13.7132 216.04 14.531 214.736C15.3489 213.432 15.8287 211.946 15.9275 210.411C15.9758 209.624 17.1913 209.803 17.1433 210.585C17.0263 212.28 16.4943 213.92 15.5939 215.363C14.6935 216.806 13.4521 218.007 11.9781 218.862C11.846 218.954 11.6836 218.993 11.5239 218.97C11.3642 218.947 11.2192 218.864 11.1184 218.739C11.0216 218.609 10.9802 218.446 11.0033 218.285C11.0265 218.125 11.1122 217.98 11.2419 217.883Z" fill="white"/>
<path d="M88.8017 156.301C88.7856 156.793 88.7695 157.285 88.7617 157.784C88.5795 164.403 88.9375 171.027 89.8322 177.588C89.8933 178.097 89.9629 178.611 90.0385 179.117C92.3632 194.903 97.61 210.121 105.512 223.999C108.662 229.519 112.228 234.791 116.181 239.772C121.64 246.65 128.109 253.675 130.886 261.711C131.186 262.546 131.433 263.399 131.626 264.264L105.631 301.384C105.529 301.439 105.436 301.5 105.334 301.555L104.364 303.084C104.142 302.842 103.917 302.585 103.695 302.343C103.566 302.202 103.443 302.054 103.313 301.914C103.229 301.817 103.145 301.721 103.063 301.639C103.035 301.607 103.007 301.575 102.987 301.549C102.906 301.467 102.839 301.382 102.766 301.306C101.505 299.876 100.251 298.435 99.0063 296.982C98.9978 296.976 98.9978 296.976 98.9951 296.962C89.5357 285.869 80.923 273.892 74.4092 260.994C74.2133 260.606 74.0087 260.213 73.8247 259.808C70.9209 253.977 68.5004 247.921 66.5873 241.698C65.5507 238.287 64.6882 234.826 64.0029 231.328C62.2499 222.287 61.9354 213.028 63.071 203.89C65.3376 185.673 73.4279 168.381 87.7027 157.148C88.068 156.861 88.4278 156.582 88.8017 156.301Z" fill="#83BBD3"/>
<path d="M89.2166 156.713C80.0487 177.534 77.4993 201.407 82.4535 223.635C83.5246 228.44 85.031 233.222 87.5581 237.481C90.0533 241.612 93.6138 245.003 97.8696 247.301C101.795 249.523 106.068 251.343 109.382 254.476C112.876 257.779 114.453 262.309 114.359 267.055C114.243 272.862 112.039 278.281 109.7 283.506C107.102 289.307 104.311 295.291 104.529 301.791C104.556 302.578 103.327 302.573 103.301 301.787C102.921 290.479 111.065 281.336 112.816 270.471C113.633 265.4 112.921 260.054 109.319 256.155C106.168 252.744 101.763 250.864 97.7699 248.649C93.5766 246.322 90.0001 243.437 87.3283 239.421C84.5952 235.312 82.8979 230.578 81.7081 225.821C79.091 215.013 78.1962 203.863 79.0565 192.778C79.9679 180.122 83.0461 167.714 88.158 156.092C88.4747 155.373 89.5312 155.998 89.2166 156.713Z" fill="white"/>
<path d="M80.4603 216.494C76.5663 216.795 72.6916 215.708 69.5283 213.426C66.365 211.144 64.119 207.816 63.1914 204.037C63.0064 203.272 64.1916 202.949 64.3769 203.716C65.2341 207.236 67.3266 210.336 70.2767 212.455C73.2267 214.574 76.84 215.572 80.4644 215.271C81.2521 215.206 81.2435 216.43 80.4603 216.494Z" fill="white"/>
<path d="M95.7307 246.436C100.977 240.44 103.761 232.696 103.529 224.747C103.506 223.959 104.734 223.964 104.758 224.751C104.984 233.023 102.069 241.077 96.5963 247.304C96.0743 247.897 95.2114 247.025 95.7307 246.436Z" fill="white"/>
<path d="M81.4126 180.871C82.9436 181.067 84.4996 180.881 85.9409 180.331C87.3821 179.78 88.6635 178.881 89.6698 177.715C90.1841 177.116 91.0464 177.988 90.5355 178.583C89.4176 179.866 88.0013 180.857 86.4103 181.469C84.8193 182.081 83.102 182.296 81.4085 182.094C81.2473 182.089 81.0943 182.022 80.9806 181.908C80.8669 181.794 80.801 181.641 80.7964 181.48C80.7977 181.318 80.8632 181.164 80.9786 181.049C81.094 180.935 81.2499 180.871 81.4126 180.871Z" fill="white"/>
<path d="M326.274 149.295C329.885 129.401 323.884 106.826 307.501 94.8926C308.554 116.853 301.775 138.476 288.364 155.936C283.167 162.652 276.685 169.582 276.937 178.057C277.094 183.33 279.987 188.227 283.782 191.906C287.578 195.586 292.242 198.228 296.85 200.828L297.572 201.932C310.947 186.726 322.663 169.189 326.274 149.295Z" fill="#83BBD3"/>
<path d="M307.205 95.1978C314.148 110.436 316.094 127.465 312.767 143.867C312.114 147.411 310.904 150.83 309.182 153.998C307.404 157.031 304.844 159.534 301.766 161.247C298.929 162.902 295.835 164.267 293.451 166.581C292.249 167.783 291.315 169.224 290.711 170.811C290.107 172.398 289.846 174.094 289.947 175.788C290.086 180.015 291.743 183.941 293.496 187.723C295.443 191.923 297.532 196.255 297.435 200.99C297.424 201.564 298.318 201.548 298.33 200.976C298.498 192.737 292.481 186.157 291.102 178.261C290.459 174.576 290.927 170.676 293.513 167.802C295.775 165.289 298.965 163.878 301.852 162.227C304.878 160.6 307.459 158.259 309.368 155.409C311.246 152.338 312.586 148.971 313.331 145.452C315.134 137.557 315.679 129.429 314.947 121.365C314.163 112.157 311.803 103.151 307.97 94.7356C307.733 94.2148 306.969 94.6804 307.205 95.1978Z" fill="white"/>
<path d="M314.151 138.649C316.989 138.831 319.8 138.003 322.082 136.311C324.364 134.62 325.968 132.175 326.608 129.414C326.735 128.855 325.869 128.632 325.741 129.192C325.151 131.764 323.656 134.04 321.528 135.611C319.4 137.182 316.778 137.944 314.136 137.758C313.562 137.718 313.58 138.61 314.151 138.649Z" fill="white"/>
<path d="M303.316 170.077C299.439 165.761 297.337 160.148 297.431 154.356C297.44 153.783 296.546 153.798 296.536 154.371C296.45 160.397 298.649 166.235 302.694 170.717C303.08 171.144 303.7 170.502 303.316 170.077Z" fill="white"/>
<path d="M313.119 112.716C312.006 112.874 310.871 112.753 309.816 112.366C308.761 111.978 307.82 111.336 307.076 110.497C306.696 110.065 306.076 110.708 306.454 111.137C307.28 112.061 308.321 112.769 309.485 113.199C310.65 113.63 311.902 113.77 313.133 113.607C313.251 113.602 313.362 113.552 313.443 113.468C313.525 113.384 313.572 113.272 313.573 113.155C313.571 113.037 313.522 112.924 313.437 112.842C313.351 112.76 313.237 112.715 313.119 112.716Z" fill="white"/>
<path d="M240.89 111.718C241.12 111.994 241.35 112.27 241.577 112.554C244.646 116.284 247.406 120.256 249.829 124.431C250.021 124.751 250.211 125.078 250.394 125.403C256.124 135.524 259.918 146.617 261.582 158.117C262.24 162.694 262.548 167.314 262.502 171.938C262.439 178.323 261.86 185.241 263.86 191.102C264.061 191.715 264.301 192.316 264.577 192.9L296.164 202.723C296.247 202.709 296.328 202.703 296.412 202.689L297.655 203.139C297.674 202.901 297.689 202.653 297.708 202.415C297.719 202.277 297.724 202.136 297.735 201.998C297.741 201.905 297.746 201.812 297.756 201.729C297.758 201.698 297.76 201.667 297.76 201.643C297.77 201.56 297.771 201.481 297.779 201.405C297.864 200.021 297.941 198.635 298.007 197.245C298.009 197.238 298.009 197.238 298.004 197.229C298.484 186.64 298.079 175.919 296.054 165.599C295.993 165.288 295.935 164.971 295.859 164.656C294.921 160.009 293.602 155.447 291.917 151.014C290.987 148.59 289.934 146.214 288.762 143.896C285.723 137.912 281.758 132.442 277.013 127.685C267.551 118.204 255.15 111.843 241.902 111.717C241.563 111.714 241.231 111.714 240.89 111.718Z" fill="#83BBD3"/>
<path d="M240.836 112.138C255.59 120.141 267.437 132.571 274.695 147.662C276.315 150.884 277.416 154.339 277.956 157.902C278.369 161.389 277.838 164.923 276.416 168.136C275.151 171.159 273.506 174.105 273.001 177.382C272.767 179.063 272.893 180.774 273.37 182.403C273.847 184.032 274.664 185.542 275.768 186.835C278.435 190.127 282.13 192.267 285.816 194.236C289.91 196.422 294.196 198.628 296.981 202.466C297.318 202.932 298.023 202.383 297.686 201.918C292.841 195.239 284.059 193.594 278.185 188.116C275.445 185.56 273.461 182.166 273.789 178.32C274.076 174.957 275.77 171.918 277.077 168.868C278.51 165.753 279.155 162.337 278.956 158.916C278.6 155.338 277.635 151.846 276.103 148.59C272.77 141.205 268.293 134.388 262.834 128.388C256.642 121.507 249.314 115.731 241.167 111.31C240.663 111.037 240.335 111.867 240.836 112.138Z" fill="white"/>
<path d="M272.645 152.149C275.022 150.593 276.765 148.245 277.565 145.526C278.364 142.807 278.168 139.893 277.009 137.306C276.773 136.783 275.947 137.124 276.183 137.647C277.266 140.055 277.449 142.769 276.699 145.3C275.95 147.83 274.317 150.01 272.095 151.447C271.612 151.759 272.165 152.46 272.645 152.149Z" fill="white"/>
<path d="M277.26 166.689C271.556 165.568 266.485 162.346 263.059 157.666C262.72 157.202 262.015 157.751 262.353 158.214C265.928 163.077 271.212 166.419 277.151 167.573C277.717 167.682 277.823 166.798 277.26 166.689Z" fill="white"/>
<path d="M256.147 122.58C255.353 123.373 254.374 123.957 253.298 124.28C252.221 124.604 251.081 124.655 249.98 124.431C249.415 124.315 249.309 125.2 249.87 125.316C251.088 125.558 252.347 125.499 253.537 125.144C254.727 124.79 255.812 124.151 256.697 123.282C256.787 123.207 256.845 123.101 256.86 122.985C256.874 122.869 256.844 122.751 256.774 122.657C256.701 122.564 256.594 122.504 256.476 122.49C256.359 122.475 256.24 122.508 256.147 122.58Z" fill="white"/>
<path d="M79.5352 228.131C83.9082 228.131 88.1022 229.861 91.1944 232.941C94.2866 236.021 96.0238 240.199 96.0238 244.555C96.0232 248.365 94.6931 252.056 92.2611 254.996C89.8292 257.937 86.4467 259.944 82.6926 260.674V287.536H72.168V228.131H79.5352Z" fill="#3F3D56"/>
<path d="M483.418 385.484V391.109C481.025 394.157 478.559 397.144 476.02 400.071C475.747 400.391 475.469 400.704 475.184 401.024C474.754 401.525 474.311 402.02 473.869 402.515V385.484H483.418Z" fill="#CACACA"/>
<path d="M455.402 373.752C453.291 373.754 451.268 374.591 449.775 376.077C448.283 377.564 447.443 379.579 447.441 381.682V393.094C447.443 395.196 448.283 397.212 449.775 398.698C451.268 400.185 453.291 401.021 455.402 401.024H475.184C475.469 400.704 475.747 400.39 476.02 400.07C478.558 397.143 481.024 394.156 483.418 391.108C483.575 390.909 483.733 390.71 483.884 390.511C485.253 388.767 486.598 386.993 487.919 385.206C488.949 383.806 489.973 382.394 490.973 380.97C490.979 380.964 490.985 380.964 490.985 380.958C492.657 378.592 494.287 376.19 495.874 373.752H455.402Z" fill="#3F3D56"/>
<path d="M506.337 276.071C505.121 275.653 503.843 275.441 502.557 275.443H499.303C498.118 275.444 496.94 275.621 495.807 275.968C493.419 276.716 491.331 278.203 489.848 280.213C488.366 282.223 487.565 284.651 487.562 287.145V382.346C487.562 382.702 487.58 383.052 487.61 383.396C487.663 384.007 487.766 384.612 487.919 385.206C488.949 383.806 489.973 382.394 490.973 380.97C490.979 380.964 490.985 380.964 490.985 380.958C492.657 378.592 494.287 376.19 495.874 373.752C496.728 372.443 497.577 371.121 498.407 369.793C504.405 360.208 509.717 350.213 514.305 339.884V287.145C514.302 284.702 513.533 282.321 512.104 280.335C510.675 278.35 508.659 276.859 506.337 276.071Z" fill="#3F3D56"/>
<path d="M105.336 385.484V396.848C102.609 393.601 99.974 390.282 97.4293 386.891C97.0779 386.426 96.7326 385.955 96.3872 385.484H105.336Z" fill="#CACACA"/>
<path d="M123.803 373.752H88.2202C89.3411 375.472 90.4821 377.172 91.6434 378.851C93.1823 381.09 94.7636 383.301 96.3873 385.484C96.7327 385.955 97.078 386.425 97.4294 386.89C99.9802 390.282 102.616 393.601 105.336 396.848C105.845 397.463 106.36 398.073 106.881 398.682C107.547 399.467 108.224 400.247 108.911 401.024H123.803C125.913 401.021 127.936 400.185 129.427 398.698C130.919 397.211 131.757 395.196 131.758 393.094V381.682C131.757 379.58 130.919 377.565 129.427 376.078C127.936 374.591 125.913 373.755 123.803 373.752Z" fill="#3F3D56"/>
<path d="M85.3243 276.765C83.6468 275.899 81.7853 275.445 79.8957 275.443H76.6482C75.1116 275.441 73.5897 275.743 72.1708 276.331C70.0212 277.215 68.1831 278.715 66.889 280.639C65.5949 282.564 64.9029 284.828 64.9004 287.145V328.044C71.0179 344.063 78.8355 359.386 88.2203 373.752C89.3412 375.472 90.4823 377.172 91.6435 378.852V287.145C91.6419 285.005 91.0522 282.906 89.9382 281.077C88.8242 279.247 87.2286 277.756 85.3243 276.765Z" fill="#3F3D56"/>
<path d="M217.685 453.517L228.358 451.077L223.992 408.91L208.24 412.511L217.685 453.517Z" fill="#9E616A"/>
<path d="M227.395 416.933C227.176 416.19 227.028 415.428 226.952 414.658C226.864 413.747 226.685 412.848 226.419 411.972C226.116 411.175 225.741 410.408 225.298 409.679C225.086 409.293 224.862 408.906 224.662 408.514C224.461 408.122 224.287 407.717 224.141 407.301C217.895 388.925 209.176 363.952 203.13 349.336C199.573 340.736 177.701 337.875 157.065 337.145C154.551 337.055 152.055 336.994 149.613 336.964C148.771 336.952 147.935 336.94 147.105 336.934C144.984 336.922 142.918 336.922 140.931 336.946C140.67 336.946 140.41 336.946 140.149 336.952C138.701 336.964 137.298 336.984 135.938 337.012C126.596 337.193 119.731 337.616 118.508 337.694L107.608 330.869L105.481 329.535L105.257 330.869L103.543 341.044L100.616 358.406L107.953 360.458L112.715 361.786L140.931 369.667L146.929 371.345L146.965 371.357L157.065 371.339L184.681 371.291L186.014 374.809C185.535 375.549 185.22 376.383 185.09 377.254C184.96 378.125 185.017 379.014 185.258 379.861C185.5 380.708 185.919 381.494 186.489 382.167C187.059 382.841 187.767 383.385 188.564 383.765L189.6 384.254L202.221 417.518C202.259 420.527 203.203 423.455 204.929 425.925C205.141 426.233 205.371 426.534 205.614 426.83L205.892 427.162L210.745 436.619L213.635 435.955L225.935 433.149L225.995 433.028C226.001 433.01 226.159 432.678 226.389 432.098V432.08C227.352 429.685 229.485 423.137 227.395 416.933Z" fill="#2F2E41"/>
<path d="M257.379 456.322C256.92 454.295 256.062 452.378 254.856 450.683C253.65 448.987 252.119 447.546 250.351 446.442C248.583 445.338 246.614 444.593 244.556 444.251C242.498 443.908 240.393 443.974 238.361 444.445L229.836 440.613L227.449 442.285L217.549 449.201L216.731 449.388L214.078 449.992L217.743 465.906L257.5 456.823L257.379 456.322Z" fill="#2F2E41"/>
<path d="M204.644 431.783L201.039 460.896L200.918 461.849L200.385 466.188C198.307 465.343 196.235 464.468 194.187 463.569C192.273 462.73 190.372 461.865 188.486 460.974V431.789L204.644 431.783Z" fill="#9E616A"/>
<path d="M126.418 231.647C138.488 231.647 148.273 221.9 148.273 209.877C148.273 197.854 138.488 188.107 126.418 188.107C114.347 188.107 104.562 197.854 104.562 209.877C104.562 221.9 114.347 231.647 126.418 231.647Z" fill="#9E616A"/>
<path d="M206.965 442.895C206.359 442.068 205.729 441.205 205.693 440.378C205.553 437.463 205.408 434.579 205.256 431.754C205.147 429.781 205.038 427.832 204.929 425.925C204.917 425.683 204.899 425.442 204.887 425.207C204.699 422.05 205.638 418.719 206.541 415.49C206.838 414.434 207.135 413.366 207.401 412.298C208.068 409.917 208.348 407.446 208.231 404.978C206.68 385.43 199.749 367.048 196.641 363.952C191.915 359.245 170.546 348.37 157.065 341.756C154.672 340.579 152.527 339.541 150.77 338.696C149.213 337.942 147.959 337.344 147.105 336.934C146.451 336.626 146.026 336.427 145.881 336.355L145.808 336.318L140.931 336.862L140.149 336.952L135.848 337.435L107.863 340.561L103.543 341.044L97.4296 341.732L91.9101 342.347L91.7041 342.365L91.6677 342.571C91.6677 342.577 91.6556 342.619 91.6435 342.697C90.6944 348.663 90.6944 354.74 91.6435 360.705C92.3584 364.755 93.7095 368.871 96.1088 372.335C96.4359 372.805 96.7752 373.258 97.1387 373.693C97.1511 373.715 97.1675 373.736 97.1872 373.753C97.266 373.849 97.3447 373.946 97.4296 374.043V374.049C100.174 377.228 103.858 379.461 107.954 380.428C108.559 380.59 109.177 380.723 109.814 380.832C116.593 382.027 124.251 383.125 131.758 384.091C134.866 384.489 137.95 384.863 140.931 385.213C146.899 385.913 152.473 386.505 157.065 386.975C163.5 387.627 168.02 388.032 169.025 388.116L180.264 440.342C179.382 441.828 179.03 443.567 179.266 445.277C179.501 446.987 180.31 448.568 181.561 449.763L182.482 450.65L183.548 455.623L187.062 460.306L187.504 460.897H203.009L203.093 460.795C203.148 460.722 208.601 453.746 208.231 445.436C208.195 444.579 207.595 443.764 206.965 442.895Z" fill="#2F2E41"/>
<path d="M206.541 267.86C205.367 267.54 204.137 267.481 202.937 267.686C201.738 267.891 200.598 268.356 199.598 269.047C198.598 269.738 197.763 270.64 197.15 271.687C196.538 272.735 196.164 273.904 196.054 275.111L177.895 280.765L178.652 292.595L204.184 284.252C206.233 284.302 208.229 283.601 209.793 282.282C211.357 280.964 212.382 279.12 212.673 277.099C212.963 275.078 212.499 273.022 211.369 271.319C210.239 269.616 208.522 268.385 206.541 267.86Z" fill="#9E616A"/>
<path d="M194.693 287.436L181.121 292.553L180.774 293.224C180.362 294.02 179.797 294.727 179.11 295.306C178.424 295.884 177.63 296.322 176.773 296.595C175.917 296.868 175.015 296.97 174.118 296.895C173.222 296.821 172.35 296.571 171.55 296.161L141.045 307.662C141.045 307.662 127.421 294.082 117.722 281.963L121.028 261.711C121.793 257.012 123.421 252.493 125.828 248.381C145.72 252.726 157.138 280.423 157.138 280.423L192.988 273.61L194.693 287.436Z" fill="#3F7389"/>
<path d="M123.312 230.482C117.841 231.954 111.808 229.997 107.538 226.285C103.268 222.573 100.597 217.313 99.0582 211.88C97.931 207.901 97.3966 203.484 99.1753 199.748C100.954 196.012 105.741 193.492 109.435 195.379C107.156 192.735 108.294 188.362 110.955 186.1C113.616 183.838 117.27 183.189 120.75 182.835C125.801 182.32 131.018 182.263 135.824 183.893C140.63 185.522 144.996 189.085 146.5 193.915C148.036 194.628 149.767 194.813 151.419 194.441C153.072 194.069 154.555 193.162 155.635 191.861C155.913 193.355 155.69 194.899 154.999 196.253C154.307 197.608 153.187 198.698 151.812 199.355L159.175 196.977C160.442 199.647 158.223 202.951 155.385 203.806C152.548 204.661 149.484 203.727 146.792 202.492C144.099 201.256 141.489 199.695 138.564 199.213C135.639 198.731 132.204 199.667 130.851 202.295C130.142 203.671 130.105 205.283 129.694 206.774C129.282 208.265 128.24 209.812 126.692 209.934C125.714 210.011 124.757 209.492 123.782 209.598C123.183 209.716 122.632 210.004 122.196 210.429C121.759 210.853 121.457 211.396 121.325 211.989C121.082 213.179 121.079 214.406 121.316 215.598L123.187 229.839L123.312 230.482Z" fill="#2F2E41"/>
<path d="M150.77 338.694L149.613 336.962L141.167 324.343L140.998 324.096L143.609 310.602L144.421 306.389L146.196 297.222L145.681 276.239L145.311 261.393L145.257 259.064L143.385 253.379C142.497 250.72 141.071 248.272 139.195 246.184C137.32 244.097 135.034 242.415 132.479 241.243L119.877 235.497C118.394 234.825 116.703 234.767 115.177 235.336C113.651 235.905 112.414 237.054 111.739 238.532C111.683 238.655 111.631 238.78 111.583 238.907C109.856 239.142 102.361 240.398 96.0056 245.31C91.5532 248.684 88.4449 253.521 87.2326 258.961C87.2205 259.003 87.2144 259.046 87.2023 259.088C86.3602 262.835 85.73 268.75 85.3241 276.764C85.0515 282.063 84.8798 288.271 84.8091 295.388C84.6961 307.251 85.366 319.109 86.8146 330.885C86.9539 332.008 87.0993 333.124 87.2508 334.247C87.378 335.188 88.2868 336.087 89.1653 336.95C89.9711 337.741 90.8012 338.562 90.9163 339.304C91.0193 339.956 90.6012 340.638 90.1044 341.35C90.0438 341.44 89.9772 341.531 89.9166 341.621C89.2986 342.496 88.6625 343.408 88.826 344.367C89.2077 346.528 89.4319 348.724 89.644 350.849C89.8808 353.774 90.3058 356.68 90.9163 359.551C91.1284 360.432 91.3707 361.319 91.6433 362.206C92.2795 364.288 93.049 366.364 93.8002 368.392C94.4485 370.154 95.121 371.965 95.6906 373.751C95.7996 374.083 95.9026 374.409 95.9996 374.735L96.048 374.904L96.2237 374.934H96.2359C96.4745 374.51 96.7589 374.113 97.0841 373.751C97.0987 373.728 97.1172 373.708 97.1386 373.691C97.2234 373.588 97.3204 373.48 97.4294 373.365C98.7563 371.923 101.64 369.334 107.953 364.97C109.365 363.999 110.946 362.943 112.716 361.784C119.204 357.553 128.268 352.044 140.931 344.928C144.106 343.142 147.513 341.253 151.152 339.262L150.77 338.694Z" fill="#3F7389"/>
<path d="M218.731 471.451C217.259 469.979 215.509 468.812 213.582 468.017C211.655 467.223 209.59 466.817 207.504 466.822L200.918 461.849L200.052 461.191L194.187 463.569C196.235 464.468 198.307 465.343 200.385 466.188C206.886 468.832 213.524 471.193 220.3 473.273C219.824 472.627 219.299 472.018 218.731 471.451Z" fill="#2F2E41"/>
<path d="M365.007 453.107L356.758 449.178L368.089 414.836L380.262 420.635L365.007 453.107Z" fill="#FFD2C5"/>
<path d="M420.304 447.572C417.905 449.062 415.475 450.511 413.015 451.917V451.935L412.979 451.941L412.967 451.947L412.034 452.176L410.695 448.652L407.605 440.523L399.183 418.375L412.276 415.158L413.015 418.145L418.553 440.517L420.14 446.914L420.304 447.572Z" fill="#FFD2C5"/>
<path d="M386.912 303.843C388.088 305.746 389.965 307.116 392.141 307.659C394.317 308.203 396.621 307.878 398.56 306.754C398.95 306.519 399.32 306.252 399.665 305.956L425.743 320.862L424.61 305.56L400.02 293.751C398.682 292.412 396.936 291.554 395.056 291.31C393.175 291.066 391.266 291.45 389.629 292.403C387.754 293.524 386.404 295.341 385.874 297.454C385.344 299.567 385.679 301.803 386.805 303.67C386.84 303.728 386.875 303.786 386.912 303.843Z" fill="#FFD2C5"/>
<path d="M414.531 315.25L419.141 318.048L439.843 330.622C441.202 331.469 442.715 332.041 444.296 332.306C445.877 332.57 447.494 332.522 449.056 332.164C450.618 331.805 452.094 331.144 453.4 330.218C454.706 329.291 455.815 328.118 456.665 326.764L456.672 326.753C458.205 324.238 458.747 321.246 458.194 318.355L448.993 272.566C448.653 270.769 447.928 269.066 446.866 267.573C445.805 266.081 444.432 264.834 442.842 263.919C441.252 263.003 439.483 262.44 437.655 262.269C435.826 262.097 433.983 262.321 432.249 262.925C429.335 263.945 426.921 266.032 425.498 268.762C424.074 271.492 423.748 274.659 424.587 277.62L434.208 310.116L419.46 303.267L414.531 315.25Z" fill="#3F7389"/>
<path d="M499.419 360.396C499.413 360.378 499.4 360.312 499.382 360.209L499.364 360.143C499.322 359.926 499.273 359.684 499.219 359.419C497.982 353.304 496.394 347.265 494.463 341.332C493.318 337.699 491.801 334.192 489.937 330.868C489.876 330.759 489.809 330.65 489.743 330.542L489.519 330.18L487.634 330.868L487.562 330.892L458.916 341.35L450.634 344.374L450.373 344.47L448.962 350.204L429.156 347.651L413.015 345.569L408.38 344.971C406.371 344.71 404.33 344.85 402.375 345.383C400.421 345.915 398.592 346.83 396.996 348.073C395.33 349.36 393.938 350.963 392.901 352.791C391.864 354.619 391.203 356.634 390.956 358.719C390.895 359.177 390.859 359.642 390.84 360.101L389.441 412.104V412.17L390.089 413.461L403.63 440.522H413.015L418.553 440.516H423.055L413.694 416.926L413.906 416.606C414.787 415.261 415.342 413.731 415.528 412.136C415.714 410.541 415.526 408.925 414.978 407.414L416.033 404.373C418.22 398.091 417.184 395.073 415.875 391.259C414.7 388.158 414.009 384.895 413.827 381.585L413.609 377.282C419.104 378.242 424.224 379.31 429.156 380.384C430.804 380.74 432.436 381.1 434.051 381.464C438.65 382.484 443.091 383.468 447.441 384.289C456.25 385.96 464.69 386.98 473.36 386.347C473.53 386.335 473.699 386.322 473.869 386.304C475.977 386.135 478.098 385.864 480.243 385.484C481.448 385.266 482.66 385.019 483.884 384.729C484.223 384.645 484.569 384.56 484.908 384.476C485.85 384.228 486.758 383.866 487.61 383.396C488.823 382.721 489.951 381.907 490.973 380.969C490.979 380.963 490.985 380.963 490.985 380.957C492.657 378.592 494.287 376.19 495.874 373.752C496.729 372.442 497.577 371.121 498.407 369.793C499.618 366.48 500.079 363.136 499.419 360.396Z" fill="#2F2E41"/>
<path d="M499.619 350.627C499.528 350.24 499.413 349.848 499.292 349.468C498.33 346.588 497.209 343.764 495.935 341.007C494.505 337.869 492.79 334.507 490.749 330.868C489.761 329.106 488.699 327.274 487.562 325.371C486.992 324.417 486.401 323.445 485.787 322.456C485.763 322.41 485.736 322.366 485.708 322.323L485.532 322.033L457.19 325.811L446.635 327.217L446.005 332.456L445.854 333.753C445.848 333.753 445.848 333.753 445.854 333.759L445.43 337.296V337.302L444.866 341.973L444.818 341.967L429.156 339.945L413.016 337.863L404.346 336.746C402.336 336.485 400.295 336.625 398.34 337.158C396.386 337.691 394.557 338.605 392.961 339.848C391.296 341.135 389.904 342.738 388.866 344.566C387.829 346.394 387.168 348.409 386.921 350.494C386.866 350.916 386.83 351.351 386.812 351.779L378.632 371.085C373.738 382.631 370.621 394.846 369.387 407.319L363.389 426.419L364.243 426.498L376.954 427.674L380.311 427.988L387.702 417.24C388.544 416.015 389.344 414.754 390.089 413.462C391.316 411.353 392.407 409.168 393.355 406.92L409.344 369.021C410.58 369.232 411.804 369.434 413.016 369.625C418.62 370.53 424 371.268 429.156 371.839C445.92 373.704 460.437 373.849 473.36 372.268C476.989 371.827 480.497 371.248 483.884 370.53C485.126 370.27 486.352 369.991 487.562 369.691C487.847 369.625 488.125 369.558 488.404 369.486C490.908 368.843 493.21 367.584 495.099 365.825C496.989 364.067 498.405 361.864 499.219 359.419C500.19 356.586 500.329 353.536 499.619 350.627Z" fill="#2F2E41"/>
<path d="M439.349 236.645C450.177 236.645 458.954 227.707 458.954 216.682C458.954 205.657 450.177 196.719 439.349 196.719C428.522 196.719 419.744 205.657 419.744 216.682C419.744 227.707 428.522 236.645 439.349 236.645Z" fill="#FFD2C5"/>
<path d="M485.901 323.125C485.871 322.902 485.835 322.679 485.786 322.455C485.32 320.005 484.108 317.603 482.939 315.274C481.824 313.053 480.764 310.953 480.327 308.865C479.897 306.807 480.152 304.743 480.4 302.751C480.667 300.591 480.945 298.358 480.321 296.191C477.156 285.127 472.81 274.432 467.356 264.291C465.98 259.831 463.341 255.862 459.758 252.858C456.174 249.855 451.796 247.945 447.15 247.357C447.692 246.348 447.918 245.2 447.798 244.062C447.722 243.326 447.5 242.613 447.146 241.964C446.791 241.314 446.311 240.741 445.732 240.278C445.176 239.832 444.537 239.5 443.852 239.301C443.167 239.102 442.449 239.04 441.739 239.119L432.627 240.139C431.166 240.322 429.837 241.072 428.928 242.225C428.019 243.379 427.604 244.844 427.774 246.301C427.825 246.749 427.927 247.191 428.077 247.616C419.619 258.346 415.275 268.123 414.875 277.368V277.374C414.827 278.442 414.833 279.512 414.893 280.579C415.085 284.031 415.838 287.428 417.123 290.639C418.64 294.349 420.671 297.829 423.157 300.977C423.666 301.617 424.193 302.244 424.739 302.86C425.248 303.463 425.817 304.097 426.447 304.761L428.041 307.247L429.525 309.571L437.462 327.814L441.503 327.682L442.067 331.695L442.2 332.63L444.817 341.966L445.011 342.666L448.592 340.97L469.955 330.868L485.926 323.312L485.901 323.125Z" fill="#3F7389"/>
<path opacity="0.2" d="M417.363 290.542C419.184 294.986 421.745 299.092 424.937 302.689C425.484 303.339 426.061 303.978 426.666 304.618L429.767 309.465C441.199 300.929 450.462 267.322 450.462 267.322L437.563 264.822L417.363 290.542Z" fill="black"/>
<path d="M409.554 238.51C410.683 240.442 411.011 242.738 410.468 244.907C409.924 247.077 408.552 248.95 406.644 250.127C406.252 250.36 405.841 250.561 405.416 250.727L406.329 280.662L393.315 272.501L394.443 245.325C393.889 243.517 393.952 241.577 394.622 239.808C395.292 238.039 396.53 236.54 398.145 235.546C400.011 234.421 402.25 234.081 404.368 234.601C406.486 235.12 408.311 236.456 409.44 238.316C409.479 238.38 409.517 238.444 409.554 238.51Z" fill="#FFD2C5"/>
<path d="M407.473 269.362L393.161 271.389L393.777 300.911C393.812 303.017 394.388 305.079 395.449 306.901C396.51 308.723 398.021 310.244 399.839 311.321C402.06 312.622 404.645 313.169 407.205 312.88C409.765 312.59 412.161 311.48 414.032 309.716L447.822 277.343C450.199 275.096 451.622 272.028 451.797 268.768C451.973 265.509 450.888 262.307 448.766 259.82C446.686 257.368 443.714 255.839 440.503 255.57C437.292 255.301 434.105 256.313 431.643 258.385C431.547 258.466 431.452 258.548 431.358 258.632C431.024 258.93 430.707 259.245 430.407 259.576L408.095 285.142L407.473 269.362Z" fill="#3F7389"/>
<path d="M420.668 446.816L420.14 446.913L413.015 448.223L410.695 448.651L407.042 449.321L408.338 454.529C409.895 453.69 411.434 452.827 412.967 451.946L412.979 451.94L413.015 451.934V451.916C415.475 450.516 417.905 449.067 420.304 447.571C420.474 447.468 420.643 447.366 420.813 447.251L420.668 446.816Z" fill="#2F2E41"/>
<path d="M367.642 447.499L358.717 443.238L357.318 442.568L355.082 448.036L339.475 451.458C338.703 451.626 338.006 452.036 337.485 452.628C336.963 453.219 336.646 453.961 336.578 454.745C336.51 455.529 336.696 456.314 337.108 456.985C337.521 457.657 338.137 458.179 338.869 458.476L354.119 464.674L358.96 460.335L357.772 466.159L363.516 468.494L369.811 448.537L367.642 447.499Z" fill="#2F2E41"/>
<path d="M491.81 208.023C488.478 204.152 486.893 199.016 484.229 194.621C481.565 190.225 476.929 186.291 472.032 187.314C468.656 188.019 466.046 190.987 464.726 194.295C463.405 197.603 463.157 201.252 462.926 204.826C463.008 197.481 458.149 190.36 451.457 188.016C444.765 185.673 436.756 188.287 432.551 194.188C430.716 192.494 428.32 191.529 425.819 191.477C423.317 191.424 420.883 192.288 418.978 193.904C415.217 197.253 414.384 203.626 417.151 207.898C419.917 212.169 425.908 213.76 430.304 211.391L431.858 212.815C430.983 215.863 432.68 219.463 435.532 220.61C437.844 221.541 441.109 221.386 441.974 223.803C442.579 225.492 441.449 227.295 440.246 228.593C439.044 229.891 437.617 231.231 437.472 233.027C437.254 235.737 440.066 237.635 442.621 238.207C448.784 239.586 455.622 236.743 459.174 231.326C459.242 231.222 459.316 231.117 459.397 231.012C461.39 228.474 462.842 225.557 463.665 222.441C464.488 219.325 464.664 216.074 464.184 212.887C463.984 211.635 464.185 210.704 465.052 210.407C468.798 209.126 479.292 211.816 482.468 214.247C485.645 216.678 488.188 219.895 491.248 222.483C494.307 225.071 498.206 227.067 502.09 226.363C505.201 225.798 507.848 223.548 509.628 220.835C511.409 218.121 512.433 214.958 513.351 211.814C506.471 215.773 497.056 214.116 491.81 208.023Z" fill="#2F2E41"/>
<path d="M429.154 327.022V441.806C426.96 443.309 424.739 444.771 422.489 446.193V334.632C422.489 331.397 421.398 328.772 420.059 328.766H319.188C317.843 328.772 316.759 331.397 316.752 334.632V482.765C315.407 482.898 314.062 483.024 312.717 483.133C312.16 483.181 311.596 483.224 311.039 483.266C310.718 482.674 310.403 482.077 310.088 481.473V327.022C310.088 326.129 310.124 325.23 310.185 324.342C310.73 316.811 313.438 311.307 316.607 311.295H422.634C423.018 311.297 423.397 311.378 423.749 311.53C426.403 312.653 428.499 317.577 429.026 323.944C429.111 324.958 429.16 325.99 429.154 327.022Z" fill="white"/>
<path d="M267.307 327.022V482.306C267.216 482.451 267.125 482.59 267.035 482.735C264.757 482.505 262.489 482.242 260.231 481.944V334.632C260.231 331.397 259.073 328.772 257.65 328.766H150.586C149.162 328.772 148.005 331.397 148.005 334.632V436.9C145.612 435.143 143.253 433.343 140.929 431.498V327.022C140.929 326.129 140.965 325.23 141.032 324.342C141.607 316.811 144.485 311.307 147.854 311.295H260.382C260.788 311.296 261.189 311.376 261.564 311.53C264.381 312.653 266.611 317.577 267.174 323.944C267.265 324.958 267.307 325.99 267.307 327.022Z" fill="white"/>
<path d="M231.427 275.417L238.443 306.168L242.927 311.059H246.162L232.831 255.148L232.171 264.647V264.653L231.427 275.417Z" fill="#3F3D56"/>
<path d="M254.792 312.631C254.772 312.583 254.746 312.539 254.714 312.498C254.649 312.353 254.556 312.222 254.441 312.112L253.623 311.297L249.321 307.006C249.005 306.699 248.582 306.525 248.14 306.523H248.122L245.086 306.542L242.475 306.56L238.828 306.584L213.987 306.741L197.659 306.843C197.217 306.849 196.794 307.027 196.483 307.34C196.171 307.652 195.995 308.074 195.993 308.515C195.995 308.759 196.049 308.999 196.15 309.221L196.465 309.891L197.126 311.297L197.986 313.138L198.41 314.043C198.545 314.331 198.76 314.575 199.029 314.746C199.299 314.917 199.611 315.008 199.931 315.009H253.254C253.534 315.003 253.809 314.929 254.054 314.793C254.299 314.657 254.507 314.463 254.659 314.228C254.811 313.993 254.903 313.725 254.926 313.446C254.949 313.167 254.903 312.887 254.792 312.631Z" fill="#3F3D56"/>
<path opacity="0.17" d="M197.987 313.136L198.408 314.045C198.545 314.332 198.76 314.575 199.03 314.745C199.299 314.916 199.611 315.007 199.93 315.009H253.255C253.536 315.004 253.81 314.93 254.055 314.794C254.301 314.658 254.508 314.464 254.66 314.229C254.812 313.994 254.903 313.726 254.926 313.447C254.949 313.169 254.903 312.889 254.792 312.633C254.773 312.585 254.747 312.54 254.715 312.5L197.987 313.136Z" fill="black"/>
<path opacity="0.17" d="M232.171 264.647V264.653L243.587 311.059H246.162L232.831 255.148L232.171 264.647Z" fill="black"/>
<path d="M250.079 134.781L248.406 134.558C247.948 134.498 247.484 134.622 247.116 134.902L246.116 135.668L234.986 149.536C234.619 149.819 234.379 150.236 234.32 150.695L233.696 155.414L218.161 273.149C218.106 273.586 218.216 274.027 218.47 274.387L225.789 294.483L226.007 294.797L226.48 295.467C226.723 295.807 227.08 296.05 227.486 296.154L228.546 296.42C228.787 296.48 229.038 296.489 229.282 296.445C229.527 296.401 229.759 296.306 229.964 296.167C230.169 296.029 230.343 295.849 230.473 295.638C230.602 295.428 230.685 295.192 230.715 294.948L232.611 280.596V280.59L233.823 271.381L234.847 263.614V263.608L251.593 136.736C251.654 136.278 251.529 135.815 251.247 135.448C250.964 135.082 250.547 134.842 250.087 134.782L250.079 134.781Z" fill="#3F3D56"/>
<path opacity="0.17" d="M246.114 135.668L225.788 294.485L226.009 294.796L226.48 295.464C226.723 295.805 227.079 296.049 227.486 296.153L228.548 296.419C228.788 296.478 229.038 296.486 229.282 296.442C229.526 296.399 229.758 296.305 229.962 296.166C230.167 296.027 230.34 295.847 230.47 295.637C230.6 295.427 230.684 295.192 230.716 294.947L251.591 136.738C251.652 136.279 251.527 135.814 251.244 135.446C250.96 135.079 250.542 134.839 250.081 134.778L248.404 134.558C248.177 134.528 247.946 134.543 247.724 134.602C247.502 134.661 247.295 134.764 247.113 134.904L246.114 135.668Z" fill="black"/>
<path d="M245.515 140.211L234.728 155.546L221.908 252.709L228.859 266.444L245.515 140.211Z" fill="#3F7389"/>
<path d="M350.584 275.417L343.567 306.168L339.084 311.059H335.849L349.181 255.148L349.84 264.647V264.653L350.584 275.417Z" fill="#3F3D56"/>
<path d="M384.352 306.843L343.189 306.584L339.535 306.56L336.93 306.542L333.895 306.523H333.87C333.43 306.524 333.008 306.698 332.695 307.006L327.569 312.112C327.456 312.223 327.364 312.354 327.297 312.498C327.265 312.539 327.238 312.583 327.218 312.631C327.107 312.887 327.061 313.167 327.085 313.446C327.108 313.725 327.2 313.993 327.352 314.228C327.504 314.463 327.711 314.657 327.956 314.793C328.201 314.929 328.476 315.003 328.757 315.009H382.08C382.4 315.007 382.713 314.916 382.983 314.745C383.253 314.574 383.469 314.331 383.606 314.043L384.024 313.138L384.885 311.297L385.86 309.221C385.964 309 386.018 308.759 386.018 308.515C386.015 308.074 385.839 307.652 385.528 307.34C385.216 307.027 384.794 306.849 384.352 306.843Z" fill="#3F3D56"/>
<path opacity="0.17" d="M384.024 313.136L383.603 314.045C383.466 314.332 383.251 314.575 382.982 314.745C382.712 314.916 382.4 315.007 382.081 315.009H328.756C328.476 315.004 328.201 314.93 327.956 314.794C327.711 314.658 327.503 314.464 327.351 314.229C327.199 313.994 327.108 313.726 327.085 313.447C327.062 313.169 327.108 312.889 327.219 312.633C327.238 312.585 327.264 312.54 327.297 312.5L384.024 313.136Z" fill="black"/>
<path opacity="0.17" d="M349.84 264.647V264.653L338.424 311.059H335.849L349.181 255.148L349.84 264.647Z" fill="black"/>
<path d="M363.849 273.149L347.69 150.695C347.631 150.236 347.391 149.819 347.024 149.536L335.9 135.668L334.9 134.901C334.53 134.622 334.064 134.499 333.604 134.557L331.931 134.781C331.47 134.84 331.052 135.079 330.768 135.446C330.483 135.812 330.357 136.277 330.417 136.736L347.163 263.614V263.62L348.187 271.381L349.405 280.596V280.608L351.295 294.947C351.325 295.193 351.408 295.429 351.539 295.64C351.67 295.85 351.845 296.03 352.052 296.166C352.256 296.306 352.487 296.401 352.731 296.445C352.974 296.488 353.224 296.48 353.464 296.42L354.524 296.154C354.93 296.05 355.287 295.806 355.53 295.466L356.003 294.796L356.221 294.482L363.54 274.386C363.797 274.028 363.907 273.586 363.849 273.149Z" fill="#3F3D56"/>
<path opacity="0.17" d="M335.898 135.668L356.223 294.485L356.002 294.796L355.531 295.464C355.288 295.805 354.932 296.049 354.525 296.153L353.463 296.418C353.223 296.478 352.973 296.486 352.729 296.442C352.485 296.399 352.254 296.305 352.049 296.166C351.844 296.027 351.671 295.847 351.541 295.637C351.412 295.427 351.327 295.192 351.295 294.947L330.42 136.738C330.359 136.279 330.484 135.814 330.768 135.446C331.051 135.079 331.469 134.838 331.93 134.778L333.607 134.558C333.834 134.528 334.065 134.543 334.287 134.602C334.509 134.661 334.716 134.764 334.898 134.904L335.898 135.668Z" fill="black"/>
<path d="M336.496 140.211L347.282 155.546L360.103 252.709L353.152 266.444L336.496 140.211Z" fill="#3F7389"/>
<path d="M136.017 336.106C136.019 336.409 135.993 336.712 135.939 337.011C135.914 337.156 135.884 337.294 135.848 337.433C135.553 338.555 134.893 339.548 133.971 340.257C133.049 340.966 131.917 341.35 130.752 341.35H107.954V395.513C107.955 396.658 107.578 397.771 106.881 398.682C106.36 398.072 105.845 397.462 105.336 396.847C102.61 393.6 99.9742 390.281 97.4296 386.889V341.35H87.2509C85.8937 341.349 84.5893 340.826 83.6102 339.89C82.6311 338.953 82.053 337.677 81.9967 336.326C81.9404 334.975 82.4102 333.655 83.308 332.641C84.2059 331.627 85.4622 330.998 86.8147 330.885C86.9601 330.873 87.1055 330.867 87.2509 330.867H130.752C132.148 330.867 133.486 331.418 134.474 332.401C135.461 333.383 136.016 334.716 136.017 336.106Z" fill="#3F3D56"/>
<path d="M499.316 336.106C499.316 337.167 498.993 338.204 498.389 339.079C497.786 339.954 496.93 340.626 495.935 341.006C495.463 341.186 494.967 341.296 494.462 341.332C494.329 341.344 494.19 341.35 494.057 341.35H483.884V390.51C483.733 390.709 483.575 390.909 483.417 391.108C481.024 394.155 478.558 397.143 476.02 400.07C475.209 399.615 474.536 398.953 474.068 398.152C473.6 397.351 473.356 396.44 473.36 395.513V341.35H450.555C449.882 341.352 449.215 341.223 448.592 340.97C447.807 340.657 447.11 340.16 446.559 339.521C446.008 338.882 445.621 338.121 445.429 337.3V337.294C445.147 336.103 445.297 334.85 445.854 333.758C445.847 333.752 445.847 333.752 445.854 333.752C446.094 333.271 446.409 332.831 446.787 332.448C447.277 331.948 447.863 331.55 448.51 331.279C449.158 331.007 449.853 330.867 450.555 330.867H494.057C495.451 330.867 496.789 331.418 497.775 332.401C498.761 333.383 499.315 334.715 499.316 336.104L499.316 336.106Z" fill="#3F3D56"/>
<path d="M498.967 235.119C496.802 235.119 494.658 235.544 492.657 236.369C490.657 237.195 488.839 238.404 487.308 239.93C485.777 241.455 484.562 243.265 483.734 245.258C482.905 247.25 482.479 249.386 482.479 251.543C482.479 255.353 483.809 259.044 486.241 261.985C488.673 264.925 492.056 266.933 495.81 267.663V294.524H506.334V235.119H498.967Z" fill="#3F3D56"/>
<path d="M211.088 295.09C210.038 294.477 208.866 294.1 207.655 293.986C206.443 293.872 205.221 294.024 204.074 294.432C202.928 294.839 201.885 295.492 201.02 296.345C200.154 297.197 199.487 298.228 199.065 299.365L180.053 300.104L177.492 308.924L204.519 310.303C206.484 310.882 208.594 310.724 210.45 309.858C212.305 308.992 213.777 307.478 214.587 305.603C215.397 303.728 215.488 301.622 214.843 299.684C214.198 297.747 212.862 296.112 211.088 295.09Z" fill="#9E616A"/>
<path d="M195.472 311.255L175.944 311.012L173.472 310.979L133.74 310.48C133.74 310.48 122.951 300.228 113.556 289.671L114.872 280.184C116.157 270.874 120.794 262.345 127.92 256.186C141.376 265.141 149.179 282.868 149.179 282.868L162.263 288.7C171.471 289.11 180.443 291.727 188.418 296.33L192.721 298.813L195.472 311.255Z" fill="#3F7389"/>
<path d="M270.99 446.152C272.353 433.897 279.803 421.741 291.464 417.604C287.014 430.258 287.2 444.073 291.991 456.604C293.856 461.429 296.435 466.604 294.807 471.514C293.794 474.57 291.249 476.931 288.387 478.424C285.526 479.918 282.338 480.654 279.19 481.375L278.575 481.895C273.412 470.689 269.626 458.407 270.99 446.152Z" fill="#83BBD3"/>
<path d="M291.584 417.834C284.864 425.538 280.752 435.156 279.833 445.321C279.596 447.505 279.706 449.714 280.16 451.864C280.669 453.945 281.729 455.852 283.228 457.386C284.598 458.845 286.168 460.18 287.158 461.945C287.651 462.856 287.945 463.861 288.021 464.893C288.097 465.925 287.953 466.962 287.598 467.934C286.779 470.382 285.125 472.389 283.439 474.297C281.567 476.414 279.59 478.585 278.82 481.369C278.726 481.707 278.206 481.543 278.299 481.206C279.639 476.361 284.306 473.557 286.491 469.18C287.51 467.137 287.918 464.777 286.908 462.648C286.025 460.787 284.407 459.41 283.007 457.945C281.522 456.469 280.423 454.653 279.805 452.657C279.243 450.536 279.047 448.336 279.227 446.15C279.551 441.222 280.652 436.376 282.488 431.789C284.555 426.542 287.507 421.686 291.217 417.431C291.447 417.168 291.812 417.572 291.584 417.834Z" fill="white"/>
<path d="M279.935 442.03C278.244 441.644 276.746 440.673 275.707 439.289C274.669 437.905 274.158 436.198 274.266 434.473C274.271 434.403 274.304 434.337 274.356 434.29C274.409 434.243 274.478 434.218 274.548 434.221C274.619 434.223 274.686 434.253 274.735 434.304C274.784 434.355 274.812 434.422 274.812 434.493C274.708 436.099 275.184 437.689 276.153 438.976C277.123 440.263 278.523 441.162 280.1 441.511C280.442 441.588 280.276 442.106 279.935 442.03Z" fill="white"/>
<path d="M282.436 456.738C285.456 454.887 287.665 451.97 288.622 448.568C288.717 448.231 289.237 448.395 289.142 448.732C288.14 452.269 285.835 455.3 282.688 457.22C282.388 457.403 282.138 456.92 282.436 456.738Z" fill="white"/>
<path d="M285.067 427.05C285.691 427.335 286.375 427.462 287.059 427.418C287.744 427.374 288.406 427.162 288.988 426.8C289.285 426.613 289.535 427.097 289.24 427.282C288.595 427.679 287.863 427.912 287.107 427.962C286.351 428.012 285.595 427.877 284.903 427.569C284.836 427.545 284.78 427.497 284.747 427.433C284.714 427.37 284.706 427.297 284.725 427.228C284.747 427.159 284.796 427.102 284.86 427.069C284.924 427.036 284.998 427.029 285.067 427.05Z" fill="white"/>
<path d="M327.465 438.981C327.282 439.103 327.1 439.225 326.917 439.351C324.472 441 322.165 442.844 320.019 444.865C319.851 445.018 319.682 445.176 319.519 445.335C314.402 450.258 310.247 456.085 307.266 462.52C306.082 465.081 305.095 467.729 304.314 470.439C303.236 474.183 302.366 478.327 300.174 481.407C299.949 481.73 299.704 482.04 299.44 482.334L279.26 482.602C279.214 482.58 279.168 482.562 279.122 482.54L278.316 482.588C278.347 482.445 278.382 482.298 278.412 482.155C278.429 482.072 278.451 481.989 278.468 481.907C278.481 481.851 278.495 481.796 278.503 481.746C278.507 481.727 278.512 481.709 278.516 481.695C278.525 481.644 278.538 481.598 278.547 481.552C278.738 480.729 278.936 479.905 279.14 479.081C279.14 479.077 279.14 479.077 279.144 479.072C280.637 472.78 282.874 466.687 285.808 460.92C285.898 460.749 285.987 460.574 286.086 460.403C287.447 457.849 289.014 455.411 290.773 453.111C291.741 451.856 292.771 450.649 293.861 449.497C296.682 446.526 299.955 444.015 303.56 442.057C310.747 438.154 319.107 436.584 326.873 438.806C327.072 438.863 327.266 438.92 327.465 438.981Z" fill="#83BBD3"/>
<path d="M327.423 439.237C317.4 441.359 308.304 446.573 301.426 454.137C299.916 455.739 298.67 457.569 297.732 459.557C296.881 461.524 296.575 463.682 296.844 465.807C297.056 467.793 297.503 469.801 297.226 471.803C297.069 472.826 296.697 473.805 296.134 474.675C295.57 475.544 294.829 476.286 293.958 476.85C291.824 478.312 289.29 478.923 286.791 479.435C284.017 480.004 281.126 480.55 278.828 482.312C278.549 482.526 278.233 482.083 278.511 481.869C282.51 478.805 287.931 479.364 292.321 477.18C294.369 476.161 296.122 474.52 296.602 472.215C297.021 470.2 296.562 468.129 296.33 466.12C296.037 464.051 296.256 461.942 296.969 459.977C297.803 457.947 298.977 456.073 300.441 454.435C303.679 450.696 307.487 447.486 311.725 444.925C316.547 441.975 321.839 439.868 327.374 438.696C327.716 438.624 327.763 439.165 327.423 439.237Z" fill="white"/>
<path d="M303.497 451.572C302.379 450.25 301.77 448.576 301.777 446.848C301.785 445.12 302.409 443.45 303.538 442.138C303.767 441.874 304.191 442.216 303.961 442.481C302.908 443.701 302.327 445.256 302.323 446.865C302.319 448.474 302.893 450.032 303.941 451.256C304.168 451.523 303.723 451.837 303.497 451.572Z" fill="white"/>
<path d="M296.603 464.813C300.134 465.146 303.661 464.142 306.481 462C306.76 461.787 307.076 462.23 306.797 462.442C303.859 464.666 300.186 465.704 296.513 465.349C296.163 465.315 296.255 464.779 296.603 464.813Z" fill="white"/>
<path d="M316.649 442.688C316.974 443.289 317.444 443.8 318.017 444.176C318.59 444.551 319.247 444.779 319.93 444.839C320.281 444.868 320.188 445.404 319.84 445.375C319.086 445.305 318.36 445.052 317.726 444.639C317.093 444.226 316.57 443.664 316.204 443.003C316.165 442.944 316.149 442.871 316.161 442.801C316.173 442.731 316.211 442.667 316.268 442.624C316.327 442.583 316.4 442.566 316.472 442.578C316.543 442.59 316.607 442.629 316.649 442.688Z" fill="white"/>
<path d="M387.651 109.212C387.829 109.18 388.007 109.155 388.184 109.124C387.438 108.664 386.735 108.136 386.085 107.549L387.651 109.212Z" fill="white"/>
<path d="M321.308 204.556C302.302 139.579 291.116 72.5836 291.116 4.90495V0H284.801V4.90484C284.801 72.5836 273.615 139.579 254.61 204.556C253.691 207.702 253.226 210.962 253.228 214.238C253.228 215.477 253.473 216.704 253.949 217.848C254.425 218.993 255.122 220.033 256.002 220.909C256.881 221.785 257.926 222.48 259.075 222.955C260.224 223.429 261.456 223.673 262.7 223.673H275.329C275.329 225.325 275.656 226.961 276.291 228.487C276.925 230.013 277.856 231.4 279.028 232.568C280.201 233.736 281.593 234.663 283.126 235.295C284.658 235.927 286.3 236.253 287.959 236.253C289.617 236.253 291.26 235.927 292.792 235.295C294.324 234.663 295.716 233.736 296.889 232.568C298.062 231.4 298.992 230.013 299.627 228.487C300.262 226.961 300.588 225.325 300.588 223.673H310.416V250.787C309.03 250.827 307.712 251.394 306.732 252.372C305.752 253.35 305.186 254.664 305.148 256.045C305.111 257.426 305.605 258.769 306.531 259.798C307.456 260.827 308.742 261.464 310.124 261.579C311.506 261.693 312.879 261.277 313.963 260.414C315.046 259.552 315.757 258.309 315.95 256.941C316.142 255.573 315.802 254.184 314.998 253.058C314.194 251.932 312.988 251.155 311.628 250.887V223.673H313.218C315.73 223.673 318.139 222.679 319.916 220.909C321.692 219.14 322.69 216.74 322.69 214.238C322.692 210.962 322.227 207.702 321.308 204.556Z" fill="white"/>
</svg>
