<svg width="535" height="484" fill="none" xmlns="http://www.w3.org/2000/svg"><path d="M27.841 268.607c-20.714-18.57-33.258-48.101-25.55-74.777 17.397 24.72 43.01 42.514 72.309 50.233 11.31 2.937 24.197 5.03 31.078 14.441 4.281 5.856 5.276 13.594 4.262 20.767-1.013 7.173-3.846 13.948-6.654 20.63l.149 1.803c-27.356-5.302-54.879-14.526-75.594-33.097Z" fill="#83BBD3"/><path d="M2.87 193.915c5.266 22.122 17.66 42.712 35.051 57.489 3.76 3.194 7.853 6.109 12.445 7.994a27.22 27.22 0 0 0 14.169 1.657c4.477-.58 8.989-1.69 13.529-1.176 4.786.542 8.784 3.214 11.577 7.06 3.417 4.705 4.933 10.354 6.223 15.929 1.432 6.189 2.822 12.641 6.924 17.7.497.613-.487 1.346-.983.734-7.138-8.802-6.162-20.985-11.331-30.711-2.413-4.538-6.212-8.38-11.446-9.333-4.577-.834-9.23.306-13.758.932-4.754.658-9.354.499-13.915-1.106-4.666-1.641-8.882-4.403-12.707-7.488a106.203 106.203 0 0 1-22.09-24.792 111.032 111.032 0 0 1-14.908-34.75c-.182-.765 1.04-.899 1.22-.139Z" fill="#fff"/><path d="M32.014 246.896a16.5 16.5 0 0 1-10.583 4.106 16.509 16.509 0 0 1-10.735-3.696c-.61-.5.141-1.468.752-.967a15.281 15.281 0 0 0 9.993 3.439 15.28 15.28 0 0 0 9.837-3.861c.59-.524 1.322.458.736.979ZM62.303 261.647a31.527 31.527 0 0 0-6.882-21.994c-.495-.615.489-1.348.983-.734a32.794 32.794 0 0 1 7.115 22.902c-.058.787-1.273.608-1.215-.174ZM11.242 217.883a9.31 9.31 0 0 0 3.289-3.147 9.258 9.258 0 0 0 1.396-4.325c.049-.787 1.264-.608 1.216.174a10.374 10.374 0 0 1-1.55 4.778 10.428 10.428 0 0 1-3.615 3.499.637.637 0 0 1-.86-.123.614.614 0 0 1 .124-.856Z" fill="#fff"/><path d="M88.802 156.301c-.016.492-.033.984-.04 1.483a121.778 121.778 0 0 0 1.07 19.804c.061.509.13 1.023.207 1.529a128.556 128.556 0 0 0 15.473 44.882 125.163 125.163 0 0 0 10.669 15.773c5.459 6.878 11.928 13.903 14.705 21.939.3.835.547 1.688.74 2.553l-25.995 37.12c-.102.055-.195.116-.297.171l-.97 1.529c-.222-.242-.447-.499-.669-.741-.129-.141-.252-.289-.382-.429a5.346 5.346 0 0 0-.25-.275 2.056 2.056 0 0 1-.076-.09c-.081-.082-.148-.167-.221-.243a399.543 399.543 0 0 1-3.76-4.324c-.008-.006-.008-.006-.01-.02-9.46-11.093-18.073-23.07-24.587-35.968-.196-.388-.4-.781-.584-1.186a119.198 119.198 0 0 1-7.238-18.11 105.265 105.265 0 0 1-2.584-10.37 87.468 87.468 0 0 1-.932-27.438c2.267-18.217 10.357-35.509 24.632-46.742.365-.287.725-.566 1.099-.847Z" fill="#83BBD3"/><path d="M89.217 156.713c-9.168 20.821-11.718 44.694-6.763 66.922 1.07 4.805 2.577 9.587 5.104 13.846a27.07 27.07 0 0 0 10.312 9.82c3.925 2.222 8.198 4.042 11.512 7.175 3.494 3.303 5.071 7.833 4.977 12.579-.116 5.807-2.32 11.226-4.659 16.451-2.598 5.801-5.389 11.785-5.171 18.285.027.787-1.202.782-1.228-.004-.38-11.308 7.764-20.451 9.515-31.316.817-5.071.105-10.417-3.497-14.316-3.151-3.411-7.556-5.291-11.55-7.506-4.192-2.327-7.769-5.212-10.44-9.228-2.734-4.109-4.431-8.843-5.62-13.6a105.656 105.656 0 0 1-2.653-33.043 110.9 110.9 0 0 1 9.102-36.686c.317-.719 1.373-.094 1.059.621Z" fill="#fff"/><path d="M80.46 216.494a16.512 16.512 0 0 1-10.932-3.068 16.4 16.4 0 0 1-6.337-9.389c-.185-.765 1-1.088 1.186-.321.857 3.52 2.95 6.62 5.9 8.739a15.295 15.295 0 0 0 10.187 2.816c.788-.065.78 1.159-.004 1.223ZM95.73 246.436a31.537 31.537 0 0 0 7.799-21.689c-.023-.788 1.205-.783 1.229.004a32.806 32.806 0 0 1-8.162 22.553c-.522.593-1.385-.279-.865-.868ZM81.413 180.871a9.367 9.367 0 0 0 4.528-.54 9.323 9.323 0 0 0 3.729-2.616c.514-.599 1.376.273.865.868a10.445 10.445 0 0 1-4.125 2.886 10.477 10.477 0 0 1-5.001.625.633.633 0 0 1-.613-.614.615.615 0 0 1 .617-.609Z" fill="#fff"/><path d="M326.274 149.295c3.611-19.894-2.39-42.469-18.773-54.402a92.897 92.897 0 0 1-19.137 61.043c-5.197 6.716-11.679 13.646-11.427 22.121.157 5.273 3.05 10.17 6.845 13.849 3.796 3.68 8.46 6.322 13.068 8.922l.722 1.104c13.375-15.206 25.091-32.743 28.702-52.637Z" fill="#83BBD3"/><path d="M307.205 95.198a79.327 79.327 0 0 1 5.562 48.669 34.184 34.184 0 0 1-3.585 10.131 19.697 19.697 0 0 1-7.416 7.249c-2.837 1.655-5.931 3.02-8.315 5.334a12.038 12.038 0 0 0-2.74 4.23 11.986 11.986 0 0 0-.764 4.977c.139 4.227 1.796 8.153 3.549 11.935 1.947 4.2 4.036 8.532 3.939 13.267-.011.574.883.558.895-.014.168-8.239-5.849-14.819-7.228-22.715-.643-3.685-.175-7.585 2.411-10.459 2.262-2.513 5.452-3.924 8.339-5.575a21.034 21.034 0 0 0 7.516-6.818 31.65 31.65 0 0 0 3.963-9.957 76.94 76.94 0 0 0 1.616-24.087 80.773 80.773 0 0 0-6.977-26.63c-.237-.52-1.001-.055-.765.463Z" fill="#fff"/><path d="M314.151 138.649a12.025 12.025 0 0 0 7.931-2.338 11.942 11.942 0 0 0 4.526-6.897c.127-.559-.739-.782-.867-.222a11.053 11.053 0 0 1-4.213 6.419 11.132 11.132 0 0 1-7.392 2.147c-.574-.04-.556.852.015.891ZM303.316 170.077a22.966 22.966 0 0 1-5.885-15.721c.009-.573-.885-.558-.895.015a23.889 23.889 0 0 0 6.158 16.346c.386.427 1.006-.215.622-.64ZM313.119 112.716a6.796 6.796 0 0 1-6.043-2.219c-.38-.432-1 .211-.622.64a7.627 7.627 0 0 0 6.679 2.47.457.457 0 0 0 .44-.452.446.446 0 0 0-.454-.439Z" fill="#fff"/><path d="M240.89 111.718c.23.276.46.552.687.836a89.026 89.026 0 0 1 8.252 11.877c.192.32.382.647.565.972a93.61 93.61 0 0 1 11.188 32.714c.658 4.577.966 9.197.92 13.821-.063 6.385-.642 13.303 1.358 19.164.201.613.441 1.214.717 1.798l31.587 9.823c.083-.014.164-.02.248-.034l1.243.45c.019-.238.034-.486.053-.724.011-.138.016-.279.027-.417.006-.093.011-.186.021-.269.002-.031.004-.062.004-.086.01-.083.011-.162.019-.238.085-1.384.162-2.77.228-4.16.002-.007.002-.007-.003-.016.48-10.589.075-21.31-1.95-31.63-.061-.311-.119-.628-.195-.943a86.646 86.646 0 0 0-3.942-13.642 76.534 76.534 0 0 0-3.155-7.118 63.976 63.976 0 0 0-11.749-16.211c-9.462-9.481-21.863-15.842-35.111-15.968a48.784 48.784 0 0 0-1.012.001Z" fill="#83BBD3"/><path d="M240.836 112.138a79.752 79.752 0 0 1 33.859 35.524 34.204 34.204 0 0 1 3.261 10.24 19.59 19.59 0 0 1-1.54 10.234c-1.265 3.023-2.91 5.969-3.415 9.246a11.985 11.985 0 0 0 .369 5.021 12.032 12.032 0 0 0 2.398 4.432c2.667 3.292 6.362 5.432 10.048 7.401 4.094 2.186 8.38 4.392 11.165 8.23.337.466 1.042-.083.705-.548-4.845-6.679-13.627-8.324-19.501-13.802-2.74-2.556-4.724-5.95-4.396-9.796.287-3.363 1.981-6.402 3.288-9.452a20.903 20.903 0 0 0 1.879-9.952 31.604 31.604 0 0 0-2.853-10.326 77.222 77.222 0 0 0-13.269-20.202 81.33 81.33 0 0 0-21.667-17.078c-.504-.273-.832.557-.331.828Z" fill="#fff"/><path d="M272.645 152.149a11.947 11.947 0 0 0 4.92-6.623 11.897 11.897 0 0 0-.556-8.22c-.236-.523-1.062-.182-.826.341a11.02 11.02 0 0 1 .516 7.653 11.063 11.063 0 0 1-4.604 6.147c-.483.312.07 1.013.55.702ZM277.26 166.689a23.123 23.123 0 0 1-14.201-9.023c-.339-.464-1.044.085-.706.548a24.059 24.059 0 0 0 14.798 9.359c.566.109.672-.775.109-.884ZM256.147 122.58a6.807 6.807 0 0 1-6.167 1.851c-.565-.116-.671.769-.11.885a7.628 7.628 0 0 0 6.827-2.034.458.458 0 0 0 .077-.625.447.447 0 0 0-.627-.077Z" fill="#fff"/><path d="M79.535 228.131c4.373 0 8.567 1.73 11.66 4.81a16.392 16.392 0 0 1 4.829 11.614c0 3.81-1.33 7.501-3.763 10.441a16.501 16.501 0 0 1-9.568 5.678v26.862H72.168v-59.405h7.367Z" fill="#3F3D56"/><path d="M483.418 385.484v5.625a237.433 237.433 0 0 1-7.398 8.962c-.273.32-.551.633-.836.953-.43.501-.873.996-1.315 1.491v-17.031h9.549Z" fill="#CACACA"/><path d="M455.402 373.752a7.988 7.988 0 0 0-5.627 2.325 7.924 7.924 0 0 0-2.334 5.605v11.412a7.921 7.921 0 0 0 2.334 5.604 7.989 7.989 0 0 0 5.627 2.326h19.782c.285-.32.563-.634.836-.954a239.38 239.38 0 0 0 7.398-8.962c.157-.199.315-.398.466-.597a230.537 230.537 0 0 0 7.089-9.541c.006-.006.012-.006.012-.012a228.222 228.222 0 0 0 4.889-7.206h-40.472Z" fill="#3F3D56"/><path d="M506.337 276.071a11.574 11.574 0 0 0-3.78-.628h-3.254a11.972 11.972 0 0 0-3.496.525 11.781 11.781 0 0 0-5.959 4.245 11.704 11.704 0 0 0-2.286 6.932v95.201c0 .356.018.706.048 1.05.053.611.156 1.216.309 1.81 1.03-1.4 2.054-2.812 3.054-4.236.006-.006.012-.006.012-.012a228.222 228.222 0 0 0 4.889-7.206 240.182 240.182 0 0 0 18.431-33.868v-52.739a11.683 11.683 0 0 0-2.201-6.81 11.762 11.762 0 0 0-5.767-4.264Z" fill="#3F3D56"/><path d="M105.336 385.484v11.364a231.998 231.998 0 0 1-7.907-9.957c-.351-.465-.696-.936-1.042-1.407h8.949Z" fill="#CACACA"/><path d="M123.803 373.752H88.22a222.95 222.95 0 0 0 3.423 5.099c1.54 2.239 3.12 4.45 4.744 6.633.346.471.691.941 1.042 1.406a242.063 242.063 0 0 0 7.907 9.958c.509.615 1.024 1.225 1.545 1.834.666.785 1.343 1.565 2.03 2.342h14.892a7.98 7.98 0 0 0 5.624-2.326 7.916 7.916 0 0 0 2.331-5.604v-11.412a7.916 7.916 0 0 0-2.331-5.604 7.98 7.98 0 0 0-5.624-2.326Z" fill="#3F3D56"/><path d="M85.324 276.765a11.863 11.863 0 0 0-5.428-1.322h-3.248c-1.536-.002-3.058.3-4.477.888a11.752 11.752 0 0 0-5.282 4.308 11.683 11.683 0 0 0-1.989 6.506v40.899a240.383 240.383 0 0 0 23.32 45.708c1.121 1.72 2.262 3.42 3.424 5.1v-91.707a11.682 11.682 0 0 0-1.706-6.068 11.75 11.75 0 0 0-4.614-4.312Z" fill="#3F3D56"/><path d="m217.685 453.517 10.673-2.44-4.366-42.167-15.752 3.601 9.445 41.006Z" fill="#9E616A"/><path d="M227.395 416.933a12.332 12.332 0 0 1-.443-2.275 13.813 13.813 0 0 0-.533-2.686 13.981 13.981 0 0 0-1.121-2.293c-.212-.386-.436-.773-.636-1.165a9.692 9.692 0 0 1-.521-1.213c-6.246-18.376-14.965-43.349-21.011-57.965-3.557-8.6-25.429-11.461-46.065-12.191a318.05 318.05 0 0 0-7.452-.181c-.842-.012-1.678-.024-2.508-.03a350.328 350.328 0 0 0-6.174.012c-.261 0-.521 0-.782.006-1.448.012-2.851.032-4.211.06-9.342.181-16.207.604-17.43.682l-10.9-6.825-2.127-1.334-.224 1.334-1.714 10.175-2.927 17.362 7.337 2.052 4.762 1.328 28.216 7.881 5.998 1.678.036.012 10.1-.018 27.616-.048 1.333 3.518a6.179 6.179 0 0 0 .475 7.358 6.225 6.225 0 0 0 2.075 1.598l1.036.489 12.621 33.264a15.007 15.007 0 0 0 3.393 9.312l.278.332 4.853 9.457 2.89-.664 12.3-2.806.06-.121c.006-.018.164-.35.394-.93v-.018c.963-2.395 3.096-8.943 1.006-15.147ZM257.379 456.322a15.715 15.715 0 0 0-2.523-5.639 15.786 15.786 0 0 0-4.505-4.241 15.876 15.876 0 0 0-11.99-1.997l-8.525-3.832-2.387 1.672-9.9 6.916-.818.187-2.653.604 3.665 15.914 39.757-9.083-.121-.501Z" fill="#2F2E41"/><path d="m204.644 431.783-3.605 29.113-.121.953-.533 4.339c-2.078-.845-4.15-1.72-6.198-2.619a221.952 221.952 0 0 1-5.701-2.595v-29.185l16.158-.006ZM126.418 231.647c12.07 0 21.855-9.747 21.855-21.77s-9.785-21.77-21.855-21.77c-12.071 0-21.856 9.747-21.856 21.77s9.785 21.77 21.856 21.77Z" fill="#9E616A"/><path d="M206.965 442.895c-.606-.827-1.236-1.69-1.272-2.517-.14-2.915-.285-5.799-.437-8.624a3073.16 3073.16 0 0 0-.327-5.829c-.012-.242-.03-.483-.042-.718-.188-3.157.751-6.488 1.654-9.717.297-1.056.594-2.124.86-3.192.667-2.381.947-4.852.83-7.32-1.551-19.548-8.482-37.93-11.59-41.026-4.726-4.707-26.095-15.582-39.576-22.196a790.278 790.278 0 0 0-6.295-3.06c-1.557-.754-2.811-1.352-3.665-1.762-.654-.308-1.079-.507-1.224-.579l-.073-.037-4.877.544-.782.09-4.301.483-27.985 3.126-4.32.483-6.113.688-5.52.615-.206.018-.036.206c0 .006-.012.048-.025.126a57.303 57.303 0 0 0 0 18.008c.715 4.05 2.067 8.166 4.466 11.63.327.47.666.923 1.03 1.358a.227.227 0 0 0 .048.06c.079.096.158.193.243.29v.006a19.961 19.961 0 0 0 10.524 6.379c.605.162 1.223.295 1.86.404 6.779 1.195 14.437 2.293 21.944 3.259 3.108.398 6.192.772 9.173 1.122 5.968.7 11.542 1.292 16.134 1.762a854.895 854.895 0 0 0 11.96 1.141l11.239 52.226a7.625 7.625 0 0 0-.998 4.935 7.644 7.644 0 0 0 2.295 4.486l.921.887 1.066 4.973 3.514 4.683.442.591h15.505l.084-.102c.055-.073 5.508-7.049 5.138-15.359-.036-.857-.636-1.672-1.266-2.541Z" fill="#2F2E41"/><path d="M206.541 267.86a8.355 8.355 0 0 0-6.943 1.187 8.28 8.28 0 0 0-3.544 6.064l-18.159 5.654.757 11.83 25.532-8.343a8.384 8.384 0 0 0 5.609-1.97 8.315 8.315 0 0 0 1.576-10.963 8.364 8.364 0 0 0-4.828-3.459Z" fill="#9E616A"/><path d="m194.693 287.436-13.572 5.117-.347.671a6.825 6.825 0 0 1-4.001 3.371 6.87 6.87 0 0 1-5.223-.434l-30.505 11.501s-13.624-13.58-23.323-25.699l3.306-20.252a38.698 38.698 0 0 1 4.8-13.33c19.892 4.345 31.31 32.042 31.31 32.042l35.85-6.813 1.705 13.826Z" fill="#3F7389"/><path d="M123.312 230.482c-5.471 1.472-11.504-.485-15.774-4.197s-6.941-8.972-8.48-14.405c-1.127-3.979-1.661-8.396.117-12.132 1.779-3.736 6.566-6.256 10.26-4.369-2.279-2.644-1.141-7.017 1.52-9.279 2.661-2.262 6.315-2.911 9.795-3.265 5.051-.515 10.268-.572 15.074 1.058 4.806 1.629 9.172 5.192 10.676 10.022a7.68 7.68 0 0 0 9.135-2.054 6.889 6.889 0 0 1-.636 4.392 6.934 6.934 0 0 1-3.187 3.102l7.363-2.378c1.267 2.67-.952 5.974-3.79 6.829-2.837.855-5.901-.079-8.593-1.314-2.693-1.236-5.303-2.797-8.228-3.279-2.925-.482-6.36.454-7.713 3.082-.709 1.376-.746 2.988-1.157 4.479-.412 1.491-1.454 3.038-3.002 3.16-.978.077-1.935-.442-2.91-.336a3.14 3.14 0 0 0-2.457 2.391 9.135 9.135 0 0 0-.009 3.609l1.871 14.241.125.643Z" fill="#2F2E41"/><path d="m150.77 338.694-1.157-1.732-8.446-12.619-.169-.247 2.611-13.494.812-4.213 1.775-9.167-.515-20.983-.37-14.846-.054-2.329-1.872-5.685a20.464 20.464 0 0 0-4.19-7.195 20.54 20.54 0 0 0-6.716-4.941l-12.602-5.746a6.17 6.17 0 0 0-4.7-.161 6.132 6.132 0 0 0-3.594 3.571c-1.727.235-9.222 1.491-15.577 6.403a23.562 23.562 0 0 0-8.773 13.651c-.013.042-.019.085-.03.127-.843 3.747-1.473 9.662-1.879 17.676-.272 5.299-.444 11.507-.515 18.624a269.697 269.697 0 0 0 2.442 38.859c.127.941 1.036 1.84 1.914 2.703.806.791 1.636 1.612 1.751 2.354.103.652-.315 1.334-.812 2.046-.06.09-.127.181-.187.271-.618.875-1.255 1.787-1.091 2.746.382 2.161.606 4.357.818 6.482a68.35 68.35 0 0 0 1.272 8.702c.212.881.455 1.768.727 2.655.636 2.082 1.406 4.158 2.157 6.186.648 1.762 1.321 3.573 1.89 5.359.11.332.213.658.31.984l.048.169.176.03h.012c.239-.424.523-.821.848-1.183a.243.243 0 0 1 .055-.06c.084-.103.181-.211.29-.326 1.327-1.442 4.211-4.031 10.524-8.395a255.157 255.157 0 0 1 4.763-3.186c6.488-4.231 15.552-9.74 28.215-16.856a995.766 995.766 0 0 1 10.221-5.666l-.382-.568Z" fill="#3F7389"/><path d="M218.731 471.451a15.806 15.806 0 0 0-11.227-4.629l-6.586-4.973-.866-.658-5.865 2.378a238.965 238.965 0 0 0 26.113 9.704 15.915 15.915 0 0 0-1.569-1.822Z" fill="#2F2E41"/><path d="m365.007 453.107-8.249-3.929 11.331-34.342 12.173 5.799-15.255 32.472ZM420.304 447.572a232.184 232.184 0 0 1-7.289 4.345v.018l-.036.006-.012.006-.933.229-1.339-3.524-3.09-8.129-8.422-22.148 13.093-3.217.739 2.987 5.538 22.372 1.587 6.397.164.658ZM386.912 303.843a8.591 8.591 0 0 0 5.229 3.816 8.63 8.63 0 0 0 6.419-.905c.39-.235.76-.502 1.105-.798l26.078 14.906-1.133-15.302-24.59-11.809a8.591 8.591 0 0 0-10.391-1.348 8.214 8.214 0 0 0-3.755 5.051 8.18 8.18 0 0 0 1.038 6.389Z" fill="#FFD2C5"/><path d="m414.531 315.25 4.61 2.798 20.702 12.574a12.246 12.246 0 0 0 13.557-.404 12.171 12.171 0 0 0 3.265-3.454l.007-.011a11.853 11.853 0 0 0 1.522-8.398l-9.201-45.789a12.68 12.68 0 0 0-2.127-4.993 12.774 12.774 0 0 0-9.211-5.304 12.79 12.79 0 0 0-5.406.656 12.128 12.128 0 0 0-6.751 5.837 12.046 12.046 0 0 0-.911 8.858l9.621 32.496-14.748-6.849-4.929 11.983Z" fill="#3F7389"/><path d="M499.419 360.396a2.272 2.272 0 0 1-.037-.187l-.018-.066a162.632 162.632 0 0 0-4.901-18.811 55.51 55.51 0 0 0-4.526-10.464c-.061-.109-.128-.218-.194-.326l-.224-.362-1.885.688-.072.024-28.646 10.458-8.282 3.024-.261.096-1.411 5.734-19.806-2.553-16.141-2.082-4.635-.598a15.324 15.324 0 0 0-11.384 3.102 15.836 15.836 0 0 0-4.095 4.718 15.774 15.774 0 0 0-1.945 5.928c-.061.458-.097.923-.116 1.382l-1.399 52.003v.066l.648 1.291 13.541 27.061h9.385l5.538-.006h4.502l-9.361-23.59.212-.32a10.343 10.343 0 0 0 1.072-9.192l1.055-3.041c2.187-6.282 1.151-9.3-.158-13.114a32.31 32.31 0 0 1-2.048-9.674l-.218-4.303c5.495.96 10.615 2.028 15.547 3.102 1.648.356 3.28.716 4.895 1.08 4.599 1.02 9.04 2.004 13.39 2.825 8.809 1.671 17.249 2.691 25.919 2.058.17-.012.339-.025.509-.043a67.336 67.336 0 0 0 6.374-.82 69.169 69.169 0 0 0 3.641-.755l1.024-.253c.942-.248 1.85-.61 2.702-1.08a17.7 17.7 0 0 0 3.363-2.427c.006-.006.012-.006.012-.012a227.027 227.027 0 0 0 4.889-7.205c.855-1.31 1.703-2.631 2.533-3.959 1.211-3.313 1.672-6.657 1.012-9.397Z" fill="#2F2E41"/><path d="M499.619 350.627a15.714 15.714 0 0 0-.327-1.159 82.418 82.418 0 0 0-3.357-8.461c-1.43-3.138-3.145-6.5-5.186-10.139a231.198 231.198 0 0 0-5.041-8.545l-.176-.29-28.342 3.778-10.555 1.406-.63 5.239-.151 1.297c-.006 0-.006 0 0 .006l-.424 3.537v.006l-.564 4.671-.048-.006-15.662-2.022-16.14-2.082-8.67-1.117a15.328 15.328 0 0 0-11.385 3.102 15.865 15.865 0 0 0-4.095 4.718 15.774 15.774 0 0 0-1.945 5.928 14.84 14.84 0 0 0-.109 1.285l-8.18 19.306a124.166 124.166 0 0 0-9.245 36.234l-5.998 19.1.854.079 12.711 1.176 3.357.314 7.391-10.748a56.538 56.538 0 0 0 2.387-3.778 57.232 57.232 0 0 0 3.266-6.542l15.989-37.899c1.236.211 2.46.413 3.672.604a327.52 327.52 0 0 0 16.14 2.214c16.764 1.865 31.281 2.01 44.204.429 3.629-.441 7.137-1.02 10.524-1.738 1.242-.26 2.468-.539 3.678-.839.285-.066.563-.133.842-.205a15.47 15.47 0 0 0 6.695-3.661 15.387 15.387 0 0 0 4.12-6.406 15.66 15.66 0 0 0 .4-8.792Z" fill="#2F2E41"/><path d="M439.349 236.645c10.828 0 19.605-8.938 19.605-19.963s-8.777-19.963-19.605-19.963c-10.827 0-19.605 8.938-19.605 19.963s8.778 19.963 19.605 19.963Z" fill="#FFD2C5"/><path d="M485.901 323.125a8.304 8.304 0 0 0-.115-.67c-.466-2.45-1.678-4.852-2.847-7.181-1.115-2.221-2.175-4.321-2.612-6.409-.43-2.058-.175-4.122.073-6.114.267-2.16.545-4.393-.079-6.56a160.601 160.601 0 0 0-12.965-31.9 24.253 24.253 0 0 0-7.598-11.433 24.403 24.403 0 0 0-12.608-5.501 5.7 5.7 0 0 0 .648-3.295 5.578 5.578 0 0 0-2.066-3.784 5.422 5.422 0 0 0-3.993-1.159l-9.112 1.02a5.595 5.595 0 0 0-3.699 2.086 5.548 5.548 0 0 0-1.154 4.076c.051.448.153.89.303 1.315-8.458 10.73-12.802 20.507-13.202 29.752v.006a31.831 31.831 0 0 0 2.248 13.265 42.847 42.847 0 0 0 6.034 10.338c.509.64 1.036 1.267 1.582 1.883a44.163 44.163 0 0 0 1.708 1.901l1.594 2.486 1.484 2.324 7.937 18.243 4.041-.132.564 4.013.133.935 2.617 9.336.194.7 3.581-1.696 21.363-10.102 15.971-7.556-.025-.187Z" fill="#3F7389"/><path opacity=".2" d="M417.363 290.542a42.688 42.688 0 0 0 7.574 12.147c.547.65 1.124 1.289 1.729 1.929l3.101 4.847c11.432-8.536 20.695-42.143 20.695-42.143l-12.899-2.5-20.2 25.72Z" fill="#000"/><path d="M409.554 238.51a8.559 8.559 0 0 1 .914 6.397 8.589 8.589 0 0 1-3.824 5.22 8.351 8.351 0 0 1-1.228.6l.913 29.935-13.014-8.161 1.128-27.176a8.523 8.523 0 0 1 .179-5.517 8.569 8.569 0 0 1 3.523-4.262 8.248 8.248 0 0 1 11.295 2.77c.039.064.077.128.114.194Z" fill="#FFD2C5"/><path d="m407.473 269.362-14.312 2.027.616 29.522a12.31 12.31 0 0 0 1.672 5.99 12.379 12.379 0 0 0 4.39 4.42 11.928 11.928 0 0 0 7.366 1.559c2.56-.29 4.956-1.4 6.827-3.164l33.79-32.373a12.727 12.727 0 0 0 .944-17.523 12.181 12.181 0 0 0-17.408-1.188c-.334.298-.651.613-.951.944l-22.312 25.566-.622-15.78Z" fill="#3F7389"/><path d="m420.668 446.816-.528.097-7.125 1.31-2.32.428-3.653.67 1.296 5.208a193.648 193.648 0 0 0 4.629-2.583l.012-.006.036-.006v-.018c2.46-1.4 4.89-2.849 7.289-4.345.17-.103.339-.205.509-.32l-.145-.435ZM367.642 447.499l-8.925-4.261-1.399-.67-2.236 5.468-15.607 3.422a3.698 3.698 0 0 0-2.897 3.287 3.674 3.674 0 0 0 .53 2.24 3.697 3.697 0 0 0 1.761 1.491l15.25 6.198 4.841-4.339-1.188 5.824 5.744 2.335 6.295-19.957-2.169-1.038ZM491.81 208.023c-3.332-3.871-4.917-9.007-7.581-13.402-2.664-4.396-7.3-8.33-12.197-7.307-3.376.705-5.986 3.673-7.306 6.981-1.321 3.308-1.569 6.957-1.8 10.531.082-7.345-4.777-14.466-11.469-16.81-6.692-2.343-14.701.271-18.906 6.172a10.24 10.24 0 0 0-6.732-2.711 10.24 10.24 0 0 0-6.841 2.427c-3.761 3.349-4.594 9.722-1.827 13.994 2.766 4.271 8.757 5.862 13.153 3.493l1.554 1.424c-.875 3.048.822 6.648 3.674 7.795 2.312.931 5.577.776 6.442 3.193.605 1.689-.525 3.492-1.728 4.79-1.202 1.298-2.629 2.638-2.774 4.434-.218 2.71 2.594 4.608 5.149 5.18 6.163 1.379 13.001-1.464 16.553-6.881.068-.104.142-.209.223-.314a23.63 23.63 0 0 0 4.787-18.125c-.2-1.252.001-2.183.868-2.48 3.746-1.281 14.24 1.409 17.416 3.84 3.177 2.431 5.72 5.648 8.78 8.236 3.059 2.588 6.958 4.584 10.842 3.88 3.111-.565 5.758-2.815 7.538-5.528 1.781-2.714 2.805-5.877 3.723-9.021-6.88 3.959-16.295 2.302-21.541-3.791Z" fill="#2F2E41"/><path d="M429.154 327.022v114.784a215.591 215.591 0 0 1-6.665 4.387V334.632c0-3.235-1.091-5.86-2.43-5.866H319.188c-1.345.006-2.429 2.631-2.436 5.866v148.133a228.96 228.96 0 0 1-5.713.501c-.321-.592-.636-1.189-.951-1.793V327.022c0-.893.036-1.792.097-2.68.545-7.531 3.253-13.035 6.422-13.047h106.027a2.85 2.85 0 0 1 1.115.235c2.654 1.123 4.75 6.047 5.277 12.414.085 1.014.134 2.046.128 3.078ZM267.307 327.022v155.284c-.091.145-.182.284-.272.429-2.278-.23-4.546-.493-6.804-.791V334.632c0-3.235-1.158-5.86-2.581-5.866H150.586c-1.424.006-2.581 2.631-2.581 5.866V436.9a236.275 236.275 0 0 1-7.076-5.402V327.022c0-.893.036-1.792.103-2.68.575-7.531 3.453-13.035 6.822-13.047h112.528a3.13 3.13 0 0 1 1.182.235c2.817 1.123 5.047 6.047 5.61 12.414.091 1.014.133 2.046.133 3.078Z" fill="#fff"/><path d="m231.427 275.417 7.016 30.751 4.484 4.891h3.235l-13.331-55.911-.66 9.499v.006l-.744 10.764Z" fill="#3F3D56"/><path d="M254.792 312.631a.573.573 0 0 0-.078-.133 1.232 1.232 0 0 0-.273-.386l-.818-.815-4.302-4.291a1.706 1.706 0 0 0-1.181-.483h-.018l-3.036.019-2.611.018-3.647.024-24.841.157-16.328.102a1.69 1.69 0 0 0-1.176.497 1.672 1.672 0 0 0-.49 1.175c.002.244.056.484.157.706l.315.67.661 1.406.86 1.841.424.905a1.677 1.677 0 0 0 1.521.966h53.323a1.725 1.725 0 0 0 1.405-.781 1.695 1.695 0 0 0 .133-1.597Z" fill="#3F3D56"/><path opacity=".17" d="m197.987 313.136.421.909a1.697 1.697 0 0 0 1.522.964h53.325a1.71 1.71 0 0 0 1.671-1.562 1.696 1.696 0 0 0-.134-.814.519.519 0 0 0-.077-.133l-56.728.636ZM232.171 264.647v.006l11.416 46.406h2.575l-13.331-55.911-.66 9.499Z" fill="#000"/><path d="m250.079 134.781-1.673-.223a1.755 1.755 0 0 0-1.29.344l-1 .766-11.13 13.868c-.367.283-.607.7-.666 1.159l-.624 4.719-15.535 117.735c-.055.437.055.878.309 1.238l7.319 20.096.218.314.473.67c.243.34.6.583 1.006.687l1.06.266a1.757 1.757 0 0 0 1.418-.253 1.722 1.722 0 0 0 .751-1.219l1.896-14.352v-.006l1.212-9.209 1.024-7.767v-.006l16.746-126.872a1.737 1.737 0 0 0-1.506-1.954l-.008-.001Z" fill="#3F3D56"/><path opacity=".17" d="m246.114 135.668-20.326 158.817.221.311.471.668c.243.341.599.585 1.006.689l1.062.266a1.763 1.763 0 0 0 1.414-.253 1.756 1.756 0 0 0 .754-1.219l20.875-158.209a1.743 1.743 0 0 0-1.51-1.96l-1.677-.22a1.753 1.753 0 0 0-1.291.346l-.999.764Z" fill="#000"/><path d="m245.515 140.211-10.787 15.335-12.82 97.163 6.951 13.735 16.656-126.233Z" fill="#3F7389"/><path d="m350.584 275.417-7.017 30.751-4.483 4.891h-3.235l13.332-55.911.659 9.499v.006l.744 10.764Z" fill="#3F3D56"/><path d="m384.352 306.843-41.163-.259-3.654-.024-2.605-.018-3.035-.019h-.025c-.44.001-.862.175-1.175.483l-5.126 5.106a1.324 1.324 0 0 0-.272.386.577.577 0 0 0-.079.133 1.695 1.695 0 0 0 .738 2.162c.245.136.52.21.801.216h53.323a1.69 1.69 0 0 0 1.526-.966l.418-.905.861-1.841.975-2.076c.104-.221.158-.462.158-.706a1.68 1.68 0 0 0-.49-1.175 1.692 1.692 0 0 0-1.176-.497Z" fill="#3F3D56"/><path opacity=".17" d="m384.024 313.136-.421.909a1.688 1.688 0 0 1-1.522.964h-53.325a1.712 1.712 0 0 1-1.405-.78 1.694 1.694 0 0 1-.132-1.596.495.495 0 0 1 .078-.133l56.727.636ZM349.84 264.647v.006l-11.416 46.406h-2.575l13.332-55.911.659 9.499Z" fill="#000"/><path d="M363.849 273.149 347.69 150.695a1.746 1.746 0 0 0-.666-1.159L335.9 135.668l-1-.767a1.784 1.784 0 0 0-1.296-.344l-1.673.224a1.75 1.75 0 0 0-1.514 1.955l16.746 126.878v.006l1.024 7.761 1.218 9.215v.012l1.89 14.339a1.703 1.703 0 0 0 .757 1.219 1.747 1.747 0 0 0 1.412.254l1.06-.266a1.78 1.78 0 0 0 1.006-.688l.473-.67.218-.314 7.319-20.096c.257-.358.367-.8.309-1.237Z" fill="#3F3D56"/><path opacity=".17" d="m335.898 135.668 20.325 158.817-.221.311-.471.668a1.774 1.774 0 0 1-1.006.689l-1.062.265c-.24.06-.49.068-.734.024a1.752 1.752 0 0 1-1.434-1.495L330.42 136.738a1.74 1.74 0 0 1 .348-1.292 1.754 1.754 0 0 1 1.162-.668l1.677-.22a1.753 1.753 0 0 1 1.291.346l1 .764Z" fill="#000"/><path d="m336.496 140.211 10.786 15.335 12.821 97.163-6.951 13.735-16.656-126.233Z" fill="#3F7389"/><path d="M136.017 336.106a4.91 4.91 0 0 1-.078.905 5.246 5.246 0 0 1-1.968 3.246 5.28 5.28 0 0 1-3.219 1.093h-22.798v54.163a5.207 5.207 0 0 1-1.073 3.169c-.521-.61-1.036-1.22-1.545-1.835a232.103 232.103 0 0 1-7.906-9.958V341.35H87.25a5.274 5.274 0 0 1-3.64-1.46 5.23 5.23 0 0 1-.302-7.249 5.27 5.27 0 0 1 3.943-1.774h43.501c1.396 0 2.734.551 3.722 1.534a5.232 5.232 0 0 1 1.543 3.705ZM499.316 336.106a5.234 5.234 0 0 1-.927 2.973 5.258 5.258 0 0 1-2.454 1.927c-.472.18-.968.29-1.473.326a4.572 4.572 0 0 1-.405.018h-10.173v49.16a239.182 239.182 0 0 1-7.864 9.56 5.215 5.215 0 0 1-1.952-1.918 5.186 5.186 0 0 1-.708-2.639V341.35h-22.805a5.177 5.177 0 0 1-1.963-.38 5.253 5.253 0 0 1-2.033-1.449 5.218 5.218 0 0 1-1.13-2.221v-.006a5.163 5.163 0 0 1 .425-3.536c-.007-.006-.007-.006 0-.006a5.257 5.257 0 0 1 2.656-2.473 5.283 5.283 0 0 1 2.045-.412h43.502c1.394 0 2.732.551 3.718 1.534a5.231 5.231 0 0 1 1.541 3.703v.002ZM498.967 235.119c-2.165 0-4.309.425-6.31 1.25-2 .826-3.818 2.035-5.349 3.561a16.405 16.405 0 0 0-4.829 11.613c0 3.81 1.33 7.501 3.762 10.442a16.508 16.508 0 0 0 9.569 5.678v26.861h10.524v-59.405h-7.367Z" fill="#3F3D56"/><path d="M211.088 295.09a8.366 8.366 0 0 0-7.014-.658 8.31 8.31 0 0 0-5.009 4.933l-19.012.739-2.561 8.82 27.027 1.379a8.409 8.409 0 0 0 5.931-.445 8.354 8.354 0 0 0 4.137-4.255 8.307 8.307 0 0 0 .256-5.919 8.348 8.348 0 0 0-3.755-4.594Z" fill="#9E616A"/><path d="m195.472 311.255-19.528-.243-2.472-.033-39.732-.499s-10.789-10.252-20.184-20.809l1.316-9.487a38.72 38.72 0 0 1 13.048-23.998c13.456 8.955 21.259 26.682 21.259 26.682l13.084 5.832a57.434 57.434 0 0 1 26.155 7.63l4.303 2.483 2.751 12.442Z" fill="#3F7389"/><path d="M270.99 446.152c1.363-12.255 8.813-24.411 20.474-28.548a56.602 56.602 0 0 0 .527 39c1.865 4.825 4.444 10 2.816 14.91-1.013 3.056-3.558 5.417-6.42 6.91-2.861 1.494-6.049 2.23-9.197 2.951l-.615.52c-5.163-11.206-8.949-23.488-7.585-35.743Z" fill="#83BBD3"/><path d="M291.584 417.834a48.452 48.452 0 0 0-11.751 27.487 20.808 20.808 0 0 0 .327 6.543 11.972 11.972 0 0 0 3.068 5.522c1.37 1.459 2.94 2.794 3.93 4.559a7.325 7.325 0 0 1 .44 5.989c-.819 2.448-2.473 4.455-4.159 6.363-1.872 2.117-3.849 4.288-4.619 7.072-.094.338-.614.174-.521-.163 1.34-4.845 6.007-7.649 8.192-12.026 1.019-2.043 1.427-4.403.417-6.532-.883-1.861-2.501-3.238-3.901-4.703a12.79 12.79 0 0 1-3.202-5.288 19.238 19.238 0 0 1-.578-6.507 46.93 46.93 0 0 1 3.261-14.361 49.398 49.398 0 0 1 8.729-14.358c.23-.263.595.141.367.403Z" fill="#fff"/><path d="M279.935 442.03a7.323 7.323 0 0 1-4.228-2.741 7.27 7.27 0 0 1-1.441-4.816.273.273 0 0 1 .469-.169.272.272 0 0 1 .077.189 6.73 6.73 0 0 0 1.341 4.483 6.775 6.775 0 0 0 3.947 2.535c.342.077.176.595-.165.519ZM282.436 456.738a14.047 14.047 0 0 0 6.186-8.17c.095-.337.615-.173.52.164a14.613 14.613 0 0 1-6.454 8.488c-.3.183-.55-.3-.252-.482ZM285.067 427.05a4.153 4.153 0 0 0 3.921-.25c.297-.187.547.297.252.482a4.654 4.654 0 0 1-4.337.287.282.282 0 0 1-.178-.341.276.276 0 0 1 .342-.178Z" fill="#fff"/><path d="M327.465 438.981c-.183.122-.365.244-.548.37a54.557 54.557 0 0 0-6.898 5.514c-.168.153-.337.311-.5.47a57.23 57.23 0 0 0-12.253 17.185 55.492 55.492 0 0 0-2.952 7.919c-1.078 3.744-1.948 7.888-4.14 10.968-.225.323-.47.633-.734.927l-20.18.268c-.046-.022-.092-.04-.138-.062l-.806.048c.031-.143.066-.29.096-.433.017-.083.039-.166.056-.248.013-.056.027-.111.035-.161a.744.744 0 0 1 .013-.051c.009-.051.022-.097.031-.143.191-.823.389-1.647.593-2.471 0-.004 0-.004.004-.009a81.554 81.554 0 0 1 6.664-18.152c.09-.171.179-.346.278-.517a53.138 53.138 0 0 1 4.687-7.292 47.206 47.206 0 0 1 3.088-3.614 39.124 39.124 0 0 1 9.699-7.44c7.187-3.903 15.547-5.473 23.313-3.251.199.057.393.114.592.175Z" fill="#83BBD3"/><path d="M327.423 439.237a48.795 48.795 0 0 0-25.997 14.9 20.911 20.911 0 0 0-3.694 5.42 11.956 11.956 0 0 0-.888 6.25c.212 1.986.659 3.994.382 5.996a7.335 7.335 0 0 1-3.268 5.047c-2.134 1.462-4.668 2.073-7.167 2.585-2.774.569-5.665 1.115-7.963 2.877-.279.214-.595-.229-.317-.443 3.999-3.064 9.42-2.505 13.81-4.689 2.048-1.019 3.801-2.66 4.281-4.965.419-2.015-.04-4.086-.272-6.095a12.762 12.762 0 0 1 .639-6.143 19.352 19.352 0 0 1 3.472-5.542 47.267 47.267 0 0 1 11.284-9.51 49.724 49.724 0 0 1 15.649-6.229c.342-.072.389.469.049.541Z" fill="#fff"/><path d="M303.497 451.572a7.268 7.268 0 0 1-1.72-4.724 7.273 7.273 0 0 1 1.761-4.71c.229-.264.653.078.423.343a6.726 6.726 0 0 0-.02 8.775c.227.267-.218.581-.444.316ZM296.603 464.813a14.138 14.138 0 0 0 9.878-2.813c.279-.213.595.23.316.442a14.7 14.7 0 0 1-10.284 2.907c-.35-.034-.258-.57.09-.536ZM316.649 442.688a4.13 4.13 0 0 0 3.281 2.151c.351.029.258.565-.09.536a4.636 4.636 0 0 1-3.636-2.372.282.282 0 0 1 .064-.379.277.277 0 0 1 .381.064ZM387.651 109.212c.178-.032.356-.057.533-.088a14.449 14.449 0 0 1-2.099-1.575l1.566 1.663ZM321.308 204.556c-19.006-64.977-30.192-131.972-30.192-199.651V0h-6.315v4.905c0 67.679-11.186 134.674-30.191 199.651a34.453 34.453 0 0 0-1.382 9.682 9.42 9.42 0 0 0 2.774 6.671 9.489 9.489 0 0 0 6.698 2.764h12.629a12.576 12.576 0 0 0 3.699 8.895 12.674 12.674 0 0 0 13.764 2.727 12.637 12.637 0 0 0 4.097-2.727 12.579 12.579 0 0 0 2.738-4.081 12.53 12.53 0 0 0 .961-4.814h9.828v27.114a5.437 5.437 0 0 0-3.684 1.585 5.393 5.393 0 0 0-.201 7.426 5.444 5.444 0 0 0 7.432.616 5.39 5.39 0 0 0 1.035-7.356 5.431 5.431 0 0 0-3.37-2.171v-27.214h1.59a9.49 9.49 0 0 0 6.698-2.764 9.416 9.416 0 0 0 2.774-6.671 34.453 34.453 0 0 0-1.382-9.682Z" fill="#fff"/></svg>