<svg width="1512" height="216" viewBox="0 0 1512 216" fill="none" xmlns="http://www.w3.org/2000/svg">
<rect x="163" y="162.997" width="52.3576" height="52" fill="#83BBD3" stroke="white" stroke-width="2"/>
<rect x="109" y="162.997" width="52.3576" height="52" fill="#83BBD3" stroke="white" stroke-width="2"/>
<rect x="55" y="162.997" width="52.3576" height="52" fill="#83BBD3" stroke="white" stroke-width="2"/>
<rect x="216.642" y="162.997" width="52.3576" height="52" fill="#83BBD3" stroke="white" stroke-width="2"/>
<rect x="865" y="54.9967" width="52.3576" height="52" fill="#FBD73A" stroke="white" stroke-width="2"/>
<rect x="811" y="54.9967" width="52.3576" height="52" fill="#FBD73A" stroke="white" stroke-width="2"/>
<rect x="757" y="54.9967" width="52.3576" height="52" fill="#FBD73A" stroke="white" stroke-width="2"/>
<rect x="918.642" y="54.9967" width="52.3576" height="52" fill="#FBD73A" stroke="white" stroke-width="2"/>
<rect x="1459" y="106.997" width="52.3576" height="52" transform="rotate(-90 1459 106.997)" fill="#AF87F6" stroke="white" stroke-width="2"/>
<rect x="1459" y="160.997" width="52.3576" height="52" transform="rotate(-90 1459 160.997)" fill="#AF87F6" stroke="white" stroke-width="2"/>
<rect x="1459" y="214.997" width="52.3576" height="52" transform="rotate(-90 1459 214.997)" fill="#AF87F6" stroke="white" stroke-width="2"/>
<rect x="1459" y="53.3544" width="52.3576" height="52" transform="rotate(-90 1459 53.3544)" fill="#AF87F6" stroke="white" stroke-width="2"/>
<rect x="595" y="162.639" width="52" height="52.3576" fill="#FBD73A" stroke="white" stroke-width="2"/>
<rect x="595" y="108.997" width="52" height="52.3576" fill="#FBD73A" stroke="white" stroke-width="2"/>
<rect x="541" y="162.639" width="52" height="52.3576" fill="#FBD73A" stroke="white" stroke-width="2"/>
<rect x="487" y="162.639" width="52" height="52.3576" fill="#FBD73A" stroke="white" stroke-width="2"/>
<rect x="486.642" y="52.9967" width="52" height="52.3576" transform="rotate(-90 486.642 52.9967)" fill="#AF87F6" stroke="white" stroke-width="2"/>
<rect x="433" y="52.9967" width="52" height="52.3576" transform="rotate(-90 433 52.9967)" fill="#AF87F6" stroke="white" stroke-width="2"/>
<rect x="486.642" y="106.997" width="52" height="52.3576" transform="rotate(-90 486.642 106.997)" fill="#AF87F6" stroke="white" stroke-width="2"/>
<rect x="486.642" y="160.997" width="52" height="52.3576" transform="rotate(-90 486.642 160.997)" fill="#AF87F6" stroke="white" stroke-width="2"/>
<rect x="701" y="53.3544" width="52" height="52.3576" transform="rotate(-180 701 53.3544)" fill="#FFA360" stroke="white" stroke-width="2"/>
<rect x="701" y="106.997" width="52" height="52.3576" transform="rotate(-180 701 106.997)" fill="#FFA360" stroke="white" stroke-width="2"/>
<rect x="755" y="53.3544" width="52" height="52.3576" transform="rotate(-180 755 53.3544)" fill="#FFA360" stroke="white" stroke-width="2"/>
<rect x="809" y="53.3544" width="52" height="52.3576" transform="rotate(-180 809 53.3544)" fill="#FFA360" stroke="white" stroke-width="2"/>
<rect x="1243" y="162.639" width="52" height="52.3576" fill="#FFA360" stroke="white" stroke-width="2"/>
<rect x="1243" y="108.997" width="52" height="52.3576" fill="#FFA360" stroke="white" stroke-width="2"/>
<rect x="1189" y="162.639" width="52" height="52.3576" fill="#FFA360" stroke="white" stroke-width="2"/>
<rect x="1135" y="162.639" width="52" height="52.3576" fill="#FFA360" stroke="white" stroke-width="2"/>
<rect x="1296.64" y="52.9967" width="52" height="52.3576" transform="rotate(-90 1296.64 52.9967)" fill="#FBD73A" stroke="white" stroke-width="2"/>
<rect x="1243" y="52.9967" width="52" height="52.3576" transform="rotate(-90 1243 52.9967)" fill="#FBD73A" stroke="white" stroke-width="2"/>
<rect x="1296.64" y="106.997" width="52" height="52.3576" transform="rotate(-90 1296.64 106.997)" fill="#FBD73A" stroke="white" stroke-width="2"/>
<rect x="1296.64" y="160.997" width="52" height="52.3576" transform="rotate(-90 1296.64 160.997)" fill="#FBD73A" stroke="white" stroke-width="2"/>
<rect x="325" y="55.176" width="52.1794" height="52.1794" fill="#83BBD3" stroke="white" stroke-width="2"/>
<rect x="378.821" y="55.176" width="52.1794" height="52.1794" fill="#83BBD3" stroke="white" stroke-width="2"/>
<rect x="378.821" y="0.996704" width="52.1794" height="52.1794" fill="#83BBD3" stroke="white" stroke-width="2"/>
<rect x="325" y="0.996704" width="52.1794" height="52.1794" fill="#83BBD3" stroke="white" stroke-width="2"/>
<rect x="1081" y="55.176" width="52.1794" height="52.1794" fill="#83BBD3" stroke="white" stroke-width="2"/>
<rect x="1134.82" y="55.176" width="52.1794" height="52.1794" fill="#83BBD3" stroke="white" stroke-width="2"/>
<rect x="1134.82" y="0.996704" width="52.1794" height="52.1794" fill="#83BBD3" stroke="white" stroke-width="2"/>
<rect x="1081" y="0.996704" width="52.1794" height="52.1794" fill="#83BBD3" stroke="white" stroke-width="2"/>
<rect x="1027" y="163.176" width="52.1794" height="52.1794" fill="#FBD73A" stroke="white" stroke-width="2"/>
<rect x="1080.82" y="163.176" width="52.1794" height="52.1794" fill="#FBD73A" stroke="white" stroke-width="2"/>
<rect x="1080.82" y="108.997" width="52.1794" height="52.1794" fill="#FBD73A" stroke="white" stroke-width="2"/>
<rect x="1027" y="108.997" width="52.1794" height="52.1794" fill="#FBD73A" stroke="white" stroke-width="2"/>
<rect x="701.358" y="162.997" width="52" height="52.3576" transform="rotate(90 701.358 162.997)" fill="#AF87F6" stroke="white" stroke-width="2"/>
<rect x="701.358" y="108.997" width="52" height="52.3576" transform="rotate(90 701.358 108.997)" fill="#AF87F6" stroke="white" stroke-width="2"/>
<rect x="755.358" y="108.997" width="52" height="52.3576" transform="rotate(90 755.358 108.997)" fill="#AF87F6" stroke="white" stroke-width="2"/>
<rect x="755.358" y="54.9967" width="52" height="52.3576" transform="rotate(90 755.358 54.9967)" fill="#AF87F6" stroke="white" stroke-width="2"/>
<rect x="863" y="161.354" width="52" height="52.3576" transform="rotate(-180 863 161.354)" fill="#FFA360" stroke="white" stroke-width="2"/>
<rect x="917" y="161.354" width="52" height="52.3576" transform="rotate(-180 917 161.354)" fill="#FFA360" stroke="white" stroke-width="2"/>
<rect x="917" y="215.354" width="52" height="52.3576" transform="rotate(-180 917 215.354)" fill="#FFA360" stroke="white" stroke-width="2"/>
<rect x="971" y="215.354" width="52" height="52.3576" transform="rotate(-180 971 215.354)" fill="#FFA360" stroke="white" stroke-width="2"/>
<rect x="162.881" y="108.878" width="52.2379" height="51.8811" fill="#FFA360" stroke="white" stroke-width="2"/>
<rect x="162.881" y="54.9967" width="52.2379" height="51.8811" fill="#FFA360" stroke="white" stroke-width="2"/>
<rect x="216.762" y="54.9967" width="52.2379" height="51.8811" fill="#FFA360" stroke="white" stroke-width="2"/>
<rect x="109" y="108.878" width="51.8811" height="51.8811" fill="#FFA360" stroke="white" stroke-width="2"/>
<rect x="377.119" y="160.878" width="52.2379" height="51.8811" transform="rotate(-180 377.119 160.878)" fill="#FBD73A" stroke="white" stroke-width="2"/>
<rect x="377.119" y="214.759" width="52.2379" height="51.8811" transform="rotate(-180 377.119 214.759)" fill="#FBD73A" stroke="white" stroke-width="2"/>
<rect x="323.238" y="214.759" width="52.2379" height="51.8811" transform="rotate(-180 323.238 214.759)" fill="#FBD73A" stroke="white" stroke-width="2"/>
<rect x="431" y="160.878" width="51.8811" height="51.8811" transform="rotate(-180 431 160.878)" fill="#FBD73A" stroke="white" stroke-width="2"/>
<rect x="1241.12" y="106.878" width="52.2379" height="51.8811" transform="rotate(-180 1241.12 106.878)" fill="#AF87F6" stroke="white" stroke-width="2"/>
<rect x="1241.12" y="160.759" width="52.2379" height="51.8811" transform="rotate(-180 1241.12 160.759)" fill="#AF87F6" stroke="white" stroke-width="2"/>
<rect x="1187.24" y="160.759" width="52.2379" height="51.8811" transform="rotate(-180 1187.24 160.759)" fill="#AF87F6" stroke="white" stroke-width="2"/>
<rect x="1295" y="106.878" width="51.8811" height="51.8811" transform="rotate(-180 1295 106.878)" fill="#AF87F6" stroke="white" stroke-width="2"/>
<rect x="1" y="54.9967" width="52" height="52" fill="#FBD73A" stroke="white" stroke-width="2"/>
<rect x="1" y="108.997" width="52" height="52" fill="#FBD73A" stroke="white" stroke-width="2"/>
<rect x="55" y="108.997" width="52" height="52" fill="#FBD73A" stroke="white" stroke-width="2"/>
<rect x="1" y="162.997" width="52" height="52" fill="#FBD73A" stroke="white" stroke-width="2"/>
<rect x="1297" y="214.997" width="52" height="52" transform="rotate(-90 1297 214.997)" fill="#83BBD3" stroke="white" stroke-width="2"/>
<rect x="1351" y="214.997" width="52" height="52" transform="rotate(-90 1351 214.997)" fill="#83BBD3" stroke="white" stroke-width="2"/>
<rect x="1351" y="160.997" width="52" height="52" transform="rotate(-90 1351 160.997)" fill="#83BBD3" stroke="white" stroke-width="2"/>
<rect x="1405" y="214.997" width="52" height="52" transform="rotate(-90 1405 214.997)" fill="#83BBD3" stroke="white" stroke-width="2"/>
<rect x="1457" y="160.997" width="52" height="52" transform="rotate(180 1457 160.997)" fill="#FFA360" stroke="white" stroke-width="2"/>
<rect x="1457" y="106.997" width="52" height="52" transform="rotate(180 1457 106.997)" fill="#FFA360" stroke="white" stroke-width="2"/>
<rect x="1403" y="106.997" width="52" height="52" transform="rotate(180 1403 106.997)" fill="#FFA360" stroke="white" stroke-width="2"/>
<rect x="1457" y="52.9967" width="52" height="52" transform="rotate(180 1457 52.9967)" fill="#FFA360" stroke="white" stroke-width="2"/>
<rect x="541" y="0.996704" width="52" height="52" fill="#83BBD3" stroke="white" stroke-width="2"/>
<rect x="541" y="54.9967" width="52" height="52" fill="#83BBD3" stroke="white" stroke-width="2"/>
<rect x="595" y="54.9967" width="52" height="52" fill="#83BBD3" stroke="white" stroke-width="2"/>
<rect x="541" y="108.997" width="52" height="52" fill="#83BBD3" stroke="white" stroke-width="2"/>
<rect x="703" y="214.997" width="52" height="52" transform="rotate(-90 703 214.997)" fill="#83BBD3" stroke="white" stroke-width="2"/>
<rect x="757" y="214.997" width="52" height="52" transform="rotate(-90 757 214.997)" fill="#83BBD3" stroke="white" stroke-width="2"/>
<rect x="757" y="160.997" width="52" height="52" transform="rotate(-90 757 160.997)" fill="#83BBD3" stroke="white" stroke-width="2"/>
<rect x="811" y="214.997" width="52" height="52" transform="rotate(-90 811 214.997)" fill="#83BBD3" stroke="white" stroke-width="2"/>
<rect x="1025" y="214.997" width="52" height="52" transform="rotate(180 1025 214.997)" fill="#AF87F6" stroke="white" stroke-width="2"/>
<rect x="1025" y="160.997" width="52" height="52" transform="rotate(180 1025 160.997)" fill="#AF87F6" stroke="white" stroke-width="2"/>
<rect x="971" y="160.997" width="52" height="52" transform="rotate(180 971 160.997)" fill="#AF87F6" stroke="white" stroke-width="2"/>
<rect x="1025" y="106.997" width="52" height="52" transform="rotate(180 1025 106.997)" fill="#AF87F6" stroke="white" stroke-width="2"/>
<rect x="270.881" y="109.116" width="51.8811" height="51.8811" fill="#AF87F6" stroke="white" stroke-width="2"/>
<rect x="217" y="109.116" width="51.8811" height="51.8811" fill="#AF87F6" stroke="white" stroke-width="2"/>
<rect x="270.881" y="0.996704" width="51.8811" height="52.2379" fill="#AF87F6" stroke="white" stroke-width="2"/>
<rect x="322.762" y="55.2346" width="51.8811" height="51.8811" transform="rotate(90 322.762 55.2346)" fill="#AF87F6" stroke="white" stroke-width="2"/>
<rect x="432.881" y="163.116" width="51.8811" height="51.8811" fill="#FFA360" stroke="white" stroke-width="2"/>
<rect x="379" y="163.116" width="51.8811" height="51.8811" fill="#FFA360" stroke="white" stroke-width="2"/>
<rect x="432.881" y="54.9967" width="51.8811" height="52.2379" fill="#FFA360" stroke="white" stroke-width="2"/>
<rect x="484.762" y="109.235" width="51.8811" height="51.8811" transform="rotate(90 484.762 109.235)" fill="#FFA360" stroke="white" stroke-width="2"/>
</svg>
