<svg width="1512" height="216" fill="none" xmlns="http://www.w3.org/2000/svg"><path fill="#83BBD3" stroke="#fff" stroke-width="2" d="M163 162.997h52.358v52H163zM109 162.997h52.358v52H109zM55 162.997h52.358v52H55zM216.642 162.997H269v52h-52.358z"/><path fill="#FBD73A" stroke="#fff" stroke-width="2" d="M865 54.997h52.358v52H865zM811 54.997h52.358v52H811zM757 54.997h52.358v52H757zM918.642 54.997H971v52h-52.358z"/><path fill="#AF87F6" stroke="#fff" stroke-width="2" d="M1459 106.997V54.639h52v52.358zM1459 160.997v-52.358h52v52.358zM1459 214.997v-52.358h52v52.358zM1459 53.354V.996h52v52.358z"/><path fill="#FBD73A" stroke="#fff" stroke-width="2" d="M595 162.639h52v52.358h-52zM595 108.997h52v52.358h-52zM541 162.639h52v52.358h-52zM487 162.639h52v52.358h-52z"/><path fill="#AF87F6" stroke="#fff" stroke-width="2" d="M486.642 52.997v-52H539v52zM433 52.997v-52h52.358v52zM486.642 106.997v-52H539v52zM486.642 160.997v-52H539v52z"/><path fill="#FFA360" stroke="#fff" stroke-width="2" d="M701 53.355h-52V.997h52zM701 106.997h-52V54.639h52zM755 53.355h-52V.997h52zM809 53.355h-52V.997h52zM1243 162.639h52v52.358h-52zM1243 108.997h52v52.358h-52zM1189 162.639h52v52.358h-52zM1135 162.639h52v52.358h-52z"/><path fill="#FBD73A" stroke="#fff" stroke-width="2" d="M1296.64 52.997v-52h52.358v52zM1243 52.997v-52h52.358v52zM1296.64 106.997v-52h52.358v52zM1296.64 160.997v-52h52.358v52z"/><path fill="#83BBD3" stroke="#fff" stroke-width="2" d="M325 55.176h52.179v52.179H325zM378.821 55.176H431v52.179h-52.179zM378.821.997H431v52.179h-52.179zM325 .997h52.179v52.179H325zM1081 55.176h52.179v52.179H1081zM1134.82 55.176h52.179v52.179h-52.179zM1134.82.997h52.179v52.179h-52.179zM1081 .997h52.179v52.179H1081z"/><path fill="#FBD73A" stroke="#fff" stroke-width="2" d="M1027 163.176h52.179v52.179H1027zM1080.82 163.176h52.179v52.179h-52.179zM1080.82 108.997h52.179v52.179h-52.179zM1027 108.997h52.179v52.179H1027z"/><path fill="#AF87F6" stroke="#fff" stroke-width="2" d="M701.358 162.997v52H649v-52zM701.358 108.997v52H649v-52zM755.358 108.997v52H703v-52zM755.358 54.997v52H703v-52z"/><path fill="#FFA360" stroke="#fff" stroke-width="2" d="M863 161.354h-52v-52.358h52zM917 161.354h-52v-52.358h52zM917 215.354h-52v-52.358h52zM971 215.354h-52v-52.358h52zM162.881 108.878h52.238v51.881h-52.238zM162.881 54.997h52.238v51.881h-52.238zM216.762 54.997H269v51.881h-52.238zM109 108.878h51.881v51.881H109z"/><path fill="#FBD73A" stroke="#fff" stroke-width="2" d="M377.119 160.878h-52.238v-51.881h52.238zM377.119 214.759h-52.238v-51.881h52.238zM323.238 214.759H271v-51.881h52.238zM431 160.878h-51.881v-51.881H431z"/><path fill="#AF87F6" stroke="#fff" stroke-width="2" d="M1241.12 106.878h-52.238V54.997h52.238zM1241.12 160.759h-52.238v-51.881h52.238zM1187.24 160.759h-52.238v-51.881h52.238zM1295 106.878h-51.881V54.997H1295z"/><path fill="#FBD73A" stroke="#fff" stroke-width="2" d="M1 54.997h52v52H1zM1 108.997h52v52H1zM55 108.997h52v52H55zM1 162.997h52v52H1z"/><path fill="#83BBD3" stroke="#fff" stroke-width="2" d="M1297 214.997v-52h52v52zM1351 214.997v-52h52v52zM1351 160.997v-52h52v52zM1405 214.997v-52h52v52z"/><path fill="#FFA360" stroke="#fff" stroke-width="2" d="M1457 160.997h-52v-52h52zM1457 106.997h-52v-52h52zM1403 106.997h-52v-52h52zM1457 52.996h-52v-52h52z"/><path fill="#83BBD3" stroke="#fff" stroke-width="2" d="M541 .997h52v52h-52zM541 54.997h52v52h-52zM595 54.997h52v52h-52zM541 108.997h52v52h-52zM703 214.997v-52h52v52zM757 214.997v-52h52v52zM757 160.997v-52h52v52zM811 214.997v-52h52v52z"/><path fill="#AF87F6" stroke="#fff" stroke-width="2" d="M1025 214.997h-52v-52h52zM1025 160.997h-52v-52h52zM971 160.997h-52v-52h52zM1025 106.997h-52v-52h52zM270.881 109.116h51.881v51.881h-51.881zM217 109.116h51.881v51.881H217zM270.881.997h51.881v52.238h-51.881zM322.762 55.235v51.88H270.88v-51.88z"/><path fill="#FFA360" stroke="#fff" stroke-width="2" d="M432.881 163.116h51.881v51.881h-51.881zM379 163.116h51.881v51.881H379zM432.881 54.997h51.881v52.238h-51.881zM484.762 109.235v51.881h-51.881v-51.881z"/></svg>