<svg width="426" height="427" fill="none" xmlns="http://www.w3.org/2000/svg"><g opacity=".5" stroke="#F1F1F1" stroke-width="2"><path fill="#83BBD3" d="M183.299 365.936h59.175v58.773h-59.175zM122.531 365.936h59.175v58.773h-59.175zM61.766 365.94h59.175v58.773H61.766zM243.684 365.936h59.175v58.773h-59.175z"/><path fill="#FFA360" d="M1 120.56V61.385h58.773v59.175zM1 181.327v-59.175h58.773v59.175zM1.004 242.094v-59.175h58.773v59.175zM1 60.175V1h58.773v59.175zM183.172 305.032h59.041v58.639h-59.041zM183.172 244.392h59.041v58.639h-59.041zM243.812 244.392h59.041v58.639h-59.041zM122.533 305.032h58.639v58.639h-58.639z"/><path fill="#83BBD3" d="M363.641 122.639v59.041h-58.639v-59.041zM424.279 122.639v59.041H365.64v-59.041zM424.279 183.28v59.041H365.64V183.28zM363.641 62v58.639h-58.639V62z"/><path fill="#FBD73A" d="M1 244.392h58.773v58.773H1zM1 305.164h58.773v58.773H1zM61.775 305.164h58.773v58.773H61.775zM1.002 365.936h58.773v58.773H1.002z"/><path fill="#AF87F6" d="M304.746 305.301h58.639v58.639h-58.639zM244.107 305.301h58.639v58.639h-58.639zM304.746 183.62h58.639v59.041h-58.639zM363.387 244.662v58.639h-58.639v-58.639zM62 244.681h58.639v58.639H62zM122.361 245H181v58.639h-58.639zM62 123h58.639v59.041H62zM120.641 184.042v58.639H62.002v-58.639z"/><path fill="#FBD73A" d="M365.359 366.648h58.639v58.639h-58.639zM304.721 366.648h58.639v58.639h-58.639zM365.359 244.967h58.639v59.041h-58.639zM424 306.009v58.639h-58.639v-58.639z"/></g></svg>