<svg width="426" height="427" viewBox="0 0 426 427" fill="none" xmlns="http://www.w3.org/2000/svg">
<g opacity="0.5">
<rect x="183.299" y="365.936" width="59.1751" height="58.7727" fill="#83BBD3" stroke="#F1F1F1" stroke-width="2"/>
<rect x="122.531" y="365.936" width="59.1751" height="58.7727" fill="#83BBD3" stroke="#F1F1F1" stroke-width="2"/>
<rect x="61.7656" y="365.94" width="59.1751" height="58.7727" fill="#83BBD3" stroke="#F1F1F1" stroke-width="2"/>
<rect x="243.684" y="365.936" width="59.1751" height="58.7727" fill="#83BBD3" stroke="#F1F1F1" stroke-width="2"/>
<rect x="1" y="120.56" width="59.1751" height="58.7727" transform="rotate(-90 1 120.56)" fill="#FFA360" stroke="#F1F1F1" stroke-width="2"/>
<rect x="1" y="181.327" width="59.1751" height="58.7727" transform="rotate(-90 1 181.327)" fill="#FFA360" stroke="#F1F1F1" stroke-width="2"/>
<rect x="1.00391" y="242.094" width="59.1751" height="58.7727" transform="rotate(-90 1.00391 242.094)" fill="#FFA360" stroke="#F1F1F1" stroke-width="2"/>
<rect x="1" y="60.175" width="59.1751" height="58.7727" transform="rotate(-90 1 60.175)" fill="#FFA360" stroke="#F1F1F1" stroke-width="2"/>
<rect x="183.172" y="305.032" width="59.0407" height="58.639" fill="#FFA360" stroke="#F1F1F1" stroke-width="2"/>
<rect x="183.172" y="244.392" width="59.0407" height="58.639" fill="#FFA360" stroke="#F1F1F1" stroke-width="2"/>
<rect x="243.812" y="244.392" width="59.0407" height="58.639" fill="#FFA360" stroke="#F1F1F1" stroke-width="2"/>
<rect x="122.533" y="305.032" width="58.639" height="58.639" fill="#FFA360" stroke="#F1F1F1" stroke-width="2"/>
<rect x="363.641" y="122.639" width="59.0407" height="58.639" transform="rotate(90 363.641 122.639)" fill="#83BBD3" stroke="#F1F1F1" stroke-width="2"/>
<rect x="424.279" y="122.639" width="59.0407" height="58.639" transform="rotate(90 424.279 122.639)" fill="#83BBD3" stroke="#F1F1F1" stroke-width="2"/>
<rect x="424.279" y="183.28" width="59.0407" height="58.639" transform="rotate(90 424.279 183.28)" fill="#83BBD3" stroke="#F1F1F1" stroke-width="2"/>
<rect x="363.641" y="62" width="58.639" height="58.639" transform="rotate(90 363.641 62)" fill="#83BBD3" stroke="#F1F1F1" stroke-width="2"/>
<rect x="1" y="244.392" width="58.7727" height="58.7727" fill="#FBD73A" stroke="#F1F1F1" stroke-width="2"/>
<rect x="1" y="305.164" width="58.7727" height="58.7727" fill="#FBD73A" stroke="#F1F1F1" stroke-width="2"/>
<rect x="61.7754" y="305.164" width="58.7727" height="58.7727" fill="#FBD73A" stroke="#F1F1F1" stroke-width="2"/>
<rect x="1.00195" y="365.936" width="58.7727" height="58.7727" fill="#FBD73A" stroke="#F1F1F1" stroke-width="2"/>
<rect x="304.746" y="305.301" width="58.639" height="58.639" fill="#AF87F6" stroke="#F1F1F1" stroke-width="2"/>
<rect x="244.107" y="305.301" width="58.639" height="58.639" fill="#AF87F6" stroke="#F1F1F1" stroke-width="2"/>
<rect x="304.746" y="183.62" width="58.639" height="59.0407" fill="#AF87F6" stroke="#F1F1F1" stroke-width="2"/>
<rect x="363.387" y="244.662" width="58.639" height="58.639" transform="rotate(90 363.387 244.662)" fill="#AF87F6" stroke="#F1F1F1" stroke-width="2"/>
<rect x="62" y="244.681" width="58.639" height="58.639" fill="#AF87F6" stroke="#F1F1F1" stroke-width="2"/>
<rect x="122.361" y="245" width="58.639" height="58.639" fill="#AF87F6" stroke="#F1F1F1" stroke-width="2"/>
<rect x="62" y="123" width="58.639" height="59.0407" fill="#AF87F6" stroke="#F1F1F1" stroke-width="2"/>
<rect x="120.641" y="184.042" width="58.639" height="58.639" transform="rotate(90 120.641 184.042)" fill="#AF87F6" stroke="#F1F1F1" stroke-width="2"/>
<rect x="365.359" y="366.648" width="58.639" height="58.639" fill="#FBD73A" stroke="#F1F1F1" stroke-width="2"/>
<rect x="304.721" y="366.648" width="58.639" height="58.639" fill="#FBD73A" stroke="#F1F1F1" stroke-width="2"/>
<rect x="365.359" y="244.967" width="58.639" height="59.0407" fill="#FBD73A" stroke="#F1F1F1" stroke-width="2"/>
<rect x="424" y="306.009" width="58.639" height="58.639" transform="rotate(90 424 306.009)" fill="#FBD73A" stroke="#F1F1F1" stroke-width="2"/>
</g>
</svg>
