<svg width="487" height="386" fill="none" xmlns="http://www.w3.org/2000/svg"><g clip-path="url(#a)"><path d="M119.066 385.253h-38.23a4.887 4.887 0 0 1-3.444-1.425 4.86 4.86 0 0 1-1.429-3.435v-79.259a4.859 4.859 0 0 1 1.43-3.435 4.884 4.884 0 0 1 3.443-1.426h38.23a4.883 4.883 0 0 1 3.443 1.426 4.854 4.854 0 0 1 1.429 3.435v79.259a4.856 4.856 0 0 1-1.429 3.435 4.886 4.886 0 0 1-3.443 1.425Z" fill="#FBD73A"/><path d="M209.432 392h-37.864a5.463 5.463 0 0 1-3.935-1.702 5.935 5.935 0 0 1-1.633-4.101V226.803a5.937 5.937 0 0 1 1.633-4.101 5.463 5.463 0 0 1 3.935-1.702h37.864a5.463 5.463 0 0 1 3.935 1.702 5.937 5.937 0 0 1 1.633 4.101v159.394a5.935 5.935 0 0 1-1.633 4.101 5.463 5.463 0 0 1-3.935 1.702Zm-37.864-169.452a4.01 4.01 0 0 0-2.886 1.247 4.356 4.356 0 0 0-1.197 3.008v159.394a4.356 4.356 0 0 0 1.197 3.008 4.01 4.01 0 0 0 2.886 1.247h37.864a4.01 4.01 0 0 0 2.886-1.247 4.356 4.356 0 0 0 1.197-3.008V226.803a4.356 4.356 0 0 0-1.197-3.008 4.01 4.01 0 0 0-2.886-1.247h-37.864Z" fill="#3F3D56"/><path d="M154.253 166.262a7.506 7.506 0 0 0-4.636-7.91 7.536 7.536 0 0 0-3.221-.545l-13.325-24.383-2.999 10.468 9.13 22.346a7.55 7.55 0 0 0 2.485 4.765 7.591 7.591 0 0 0 10.066.016 7.55 7.55 0 0 0 2.5-4.757ZM51.585 262.536l7.422 5.406 24.433-25.986-10.954-7.977-20.901 28.557Z" fill="#A0616A"/><path d="m68.29 285.24-23.328-16.988 6.58-8.99 14.315 10.424a11.129 11.129 0 0 1 4.446 7.275 11.108 11.108 0 0 1-2.013 8.279Z" fill="#2F2E41"/><path d="M90.853 291.148h9.19l4.372-35.359-13.563.001.001 35.358Z" fill="#A0616A"/><path d="m117.767 299.658-28.883.002v-11.132l17.723-.001c2.96 0 5.798 1.173 7.891 3.26a11.118 11.118 0 0 1 3.269 7.871ZM118.453 153.239s4.498 43.368-6.746 73.277l-8.246 56.827H89.219l1.499-67.295-5.247-59.818s10.494-26.918 32.982-2.991Z" fill="#2F2E41"/><path d="m69.729 156.23 14.992 51.593-29.235 46.359 14.618 12.338 33.357-51.967-9.745-63.557-23.987 5.234Z" fill="#2F2E41"/><path d="M107.962 40.536c10.168 0 18.411-8.222 18.411-18.364 0-10.143-8.243-18.365-18.411-18.365-10.168 0-18.411 8.222-18.411 18.365 0 10.142 8.243 18.364 18.411 18.364Z" fill="#A0616A"/><path d="M92.592 47.436s11.244-7.477 23.987 8.972l3.374 103.561s-9.745-13.46-29.985-.748c-20.239 12.711-24.737-1.496-24.737-1.496S50.99 50.801 92.592 47.435Z" fill="#DF654D"/><path d="M115.673 56.148a13.14 13.14 0 0 1 8.577 3.821 13.08 13.08 0 0 1 3.819 8.562l2.378 45.079 15.742 42.621-8.995 7.477-29.235-50.846-5.985-41.792a13.046 13.046 0 0 1 .453-5.717 13.087 13.087 0 0 1 2.86-4.975 13.149 13.149 0 0 1 10.386-4.23Z" fill="#DF654D"/><path d="M94.434 35.948c3.01 3.198 8.599 1.481 8.992-2.888.03-.339.028-.68-.007-1.02-.203-1.934-1.324-3.691-1.055-5.735.061-.508.251-.993.552-1.408 2.398-3.204 8.029 1.433 10.292-1.467 1.388-1.779-.243-4.578.822-6.566 1.406-2.623 5.569-1.33 8.181-2.766 2.905-1.599 2.731-6.045.819-8.75C120.697 2.05 116.608.29 112.57.038c-4.039-.254-8.049.835-11.819 2.3-4.284 1.666-8.532 3.967-11.168 7.724-3.206 4.57-3.514 10.712-1.91 16.055.974 3.25 4.303 7.22 6.76 9.832Z" fill="#2F2E41"/><path d="M363.284 341.363c-6.741-5.681-10.835-14.657-9.762-23.395 1.074-8.737 7.725-16.77 16.352-18.625 8.627-1.856 18.461 3.281 21.081 11.687 1.442-16.207 3.104-33.093 11.742-46.894 7.821-12.497 21.369-21.439 36.051-23.039 14.682-1.599 30.14 4.443 39.297 16.002 9.156 11.559 11.398 28.364 4.985 41.635-4.724 9.777-13.428 17.052-22.547 22.971a145.814 145.814 0 0 1-99.527 21.719" fill="#3F7389"/><path d="M463.526 245.874a237.762 237.762 0 0 0-33.181 32.866 238.07 238.07 0 0 0-37.372 62.296c-.673 1.645 2.005 2.361 2.67.734a236.908 236.908 0 0 1 69.841-93.943c1.382-1.123-.587-3.067-1.958-1.953Z" fill="#fff"/><mask id="b" style="mask-type:alpha" maskUnits="userSpaceOnUse" x="18" y="-98" width="486" height="484"><path d="M503.908 144a240.028 240.028 0 0 1-22.041 100.855c-.224.495-.455.984-.685 1.479-.23.489-.46.984-.697 1.473-.303.633-.605 1.261-.914 1.888-.382.791-.77 1.576-1.17 2.36a4.127 4.127 0 0 1-.163.326c-.334.664-.667 1.328-1.012 1.992-.073.144-.146.289-.224.428-.394.772-.8 1.545-1.212 2.311v.006c-.436.815-.875 1.628-1.315 2.438a218.728 218.728 0 0 1-3.362 5.957c-.346.585-.685 1.171-1.036 1.75-.322.543-.643 1.08-.97 1.617-.224.375-.448.743-.678 1.111-.364.597-.734 1.195-1.109 1.792-.006.006-.006.006-.006.012-.83 1.328-1.678 2.65-2.533 3.959h-.006c-.394.61-.793 1.213-1.193 1.817v.006a236.488 236.488 0 0 1-3.69 5.377v.006a.014.014 0 0 0-.012.006v.006l-.012.012a193.958 193.958 0 0 1-3.042 4.218v.006a212.938 212.938 0 0 1-3.671 4.834 13.42 13.42 0 0 1-.364.465v.006c-.151.199-.303.392-.466.592v.006a239.347 239.347 0 0 1-7.398 8.961h-.006c-.133.163-.273.32-.412.477-.133.157-.279.314-.418.477h-.006c-.212.247-.43.495-.649.742-.212.248-.436.495-.66.743v.006a243.214 243.214 0 0 1-44.713 39.287 214.394 214.394 0 0 1-6.665 4.387c-.557.356-1.115.706-1.678 1.056-.17.115-.339.218-.509.32-.297.187-.6.374-.903.561-.297.182-.6.369-.902.55a224 224 0 0 1-3.642 2.172c-.303.181-.612.356-.921.537-.303.175-.612.35-.921.525a.046.046 0 0 1-.015.016.06.06 0 0 1-.021.008l-.012.007-.012.012h-.006c-1.527.875-3.06 1.738-4.611 2.57a244.171 244.171 0 0 1-12.299 6.247c-.164.078-.321.157-.485.229-.491.229-.981.459-1.472.682-.533.253-1.072.495-1.606.736a234.424 234.424 0 0 1-8.609 3.7 238.138 238.138 0 0 1-24.98 8.605 234.853 234.853 0 0 1-12.16 3.12 241.759 241.759 0 0 1-19.46 3.627c-.013 0-.031.006-.043.006-.781.115-1.569.224-2.351.332a2.208 2.208 0 0 1-.212.03c-.006.007-.012.007-.024 0 0 0 0 .007-.006 0-.866.115-1.733.23-2.605.338a1.623 1.623 0 0 1-.182.025c-.812.096-1.63.193-2.448.283-.878.097-1.757.187-2.641.278-.673.066-1.345.133-2.018.193a.928.928 0 0 1-.182.018c-.612.054-1.223.109-1.835.157-.025 0-.055.006-.079.006-.533.048-1.066.084-1.6.127-6.27.495-12.602.74-18.994.736-6.937 0-13.803-.288-20.599-.863-.025 0-.049-.006-.073-.006a260.69 260.69 0 0 1-4.338-.398c-.382-.037-.757-.079-1.139-.115a2.69 2.69 0 0 1-.218-.024l-.352-.036c-.06-.006-.127-.012-.187-.024-.503-.055-1.006-.109-1.515-.169-.564-.067-1.133-.133-1.697-.206a76.326 76.326 0 0 1-1.696-.217c-.121-.012-.248-.024-.37-.048a39.978 39.978 0 0 1-1.229-.163c-.2-.024-.394-.054-.588-.085a67.908 67.908 0 0 1-1.176-.169c-.012 0-.03-.006-.042-.006a240.187 240.187 0 0 1-36.528-8.201h-.006c-.648-.199-1.297-.404-1.945-.61a9.715 9.715 0 0 1-.581-.181 228.906 228.906 0 0 1-5.023-1.665 224.201 224.201 0 0 1-6.84-2.463c-.618-.235-1.23-.47-1.848-.706a256.09 256.09 0 0 1-9.864-4.073h-.006v-.006a221.952 221.952 0 0 1-5.701-2.595.613.613 0 0 1-.158-.073c-.006 0-.006-.006-.012-.006a118.03 118.03 0 0 1-1.254-.591l-.012-.006a240.812 240.812 0 0 1-29.985-17.055 236.358 236.358 0 0 1-9.057-6.343 234.618 234.618 0 0 1-7.077-5.401 242.885 242.885 0 0 1-32.014-30.47h-.006v-.006c-.685-.779-1.351-1.551-2.03-2.336v-.006c-.097-.108-.188-.217-.279-.325-.43-.501-.848-.996-1.266-1.503v-.006c-.57-.67-1.127-1.342-1.672-2.016a25.548 25.548 0 0 1-.352-.428h-.005v-.006c-.449-.544-.891-1.093-1.327-1.642-.225-.271-.443-.549-.66-.827h-.007v-.006a217.665 217.665 0 0 1-3.883-5.027v-.006a76.056 76.056 0 0 1-1.037-1.4h-.005a223.198 223.198 0 0 1-4.745-6.632v-.006a187.155 187.155 0 0 1-1.726-2.535c-.57-.851-1.133-1.704-1.69-2.559h-.007a230.418 230.418 0 0 1-1.708-2.655c-.03-.048-.06-.091-.085-.133a160.922 160.922 0 0 1-1.648-2.643 130.98 130.98 0 0 1-1.284-2.112c-.291-.477-.576-.948-.855-1.431-.103-.163-.194-.326-.284-.482a369.84 369.84 0 0 1-1.903-3.283 250.447 250.447 0 0 1-2.169-3.899c-.29-.537-.582-1.08-.866-1.623a8.69 8.69 0 0 1-.285-.532c-.34-.639-.679-1.279-1.012-1.925-.333-.639-.666-1.285-.993-1.931-.328-.646-.655-1.291-.976-1.943a163.62 163.62 0 0 1-.72-1.473 1.31 1.31 0 0 1-.068-.126c-.109-.23-.224-.453-.327-.682a.4.4 0 0 1-.054-.115 86.284 86.284 0 0 1-.727-1.515c-.315-.651-.618-1.309-.921-1.967-.218-.459-.424-.923-.636-1.388-.303-.652-.6-1.31-.891-1.974-.309-.681-.606-1.369-.903-2.057a19.344 19.344 0 0 1-.224-.519c-.14-.314-.273-.628-.406-.942-.357-.833-.709-1.678-1.054-2.516-.394-.948-.778-1.897-1.151-2.849-.358-.887-.705-1.776-1.042-2.667l-.128-.326v-.006a240.2 240.2 0 0 1-11.899-42.522v-.006a240.46 240.46 0 0 1-3.223-25.033c-.037-.459-.067-.917-.097-1.376-.4-5.679-.596-11.38-.588-17.103 0-2.541.04-5.069.121-7.586 1.571-52.613 20.4-103.265 53.608-144.21a235.396 235.396 0 0 1 4.46-5.347C120.743-65.08 186.99-98 260.953-98c86.476 0 162.404 45.002 205.451 112.78a223.622 223.622 0 0 1 6.434 10.73A240.087 240.087 0 0 1 503.908 144Z" fill="#E2D2FF"/></mask><g mask="url(#b)"><path d="M300.47 392h-38.23a5.633 5.633 0 0 1-3.973-1.644 5.609 5.609 0 0 1-1.649-3.964V134.409a5.609 5.609 0 0 1 1.649-3.964 5.633 5.633 0 0 1 3.973-1.644h38.23a5.634 5.634 0 0 1 3.974 1.644 5.608 5.608 0 0 1 1.648 3.964v251.983a5.608 5.608 0 0 1-1.648 3.964A5.634 5.634 0 0 1 300.47 392Zm-38.23-261.704a4.132 4.132 0 0 0-2.914 1.206 4.115 4.115 0 0 0-1.209 2.907v251.983a4.115 4.115 0 0 0 1.209 2.907 4.132 4.132 0 0 0 2.914 1.206h38.23a4.132 4.132 0 0 0 2.914-1.206 4.11 4.11 0 0 0 1.209-2.907V134.409a4.11 4.11 0 0 0-1.209-2.907 4.132 4.132 0 0 0-2.914-1.206h-38.23Z" fill="#3F3D56"/><path d="M392.019 385.627h-38.23a4.888 4.888 0 0 1-3.444-1.425 4.861 4.861 0 0 1-1.428-3.435V25.597a4.859 4.859 0 0 1 1.428-3.436 4.886 4.886 0 0 1 3.444-1.425h38.23a4.882 4.882 0 0 1 3.443 1.425 4.855 4.855 0 0 1 1.429 3.435v355.171a4.858 4.858 0 0 1-1.429 3.435 4.884 4.884 0 0 1-3.443 1.425Z" fill="#FBD73A"/></g></g><defs><clipPath id="a"><path fill="#fff" d="M0 0h487v386H0z"/></clipPath></defs></svg>