<svg width="1512" height="756" fill="none" xmlns="http://www.w3.org/2000/svg"><path d="M1 744.752V614.106l9.386-9.449h130.771l9.386 9.449v130.646l-9.386 9.448H10.387L1 744.752Zm151.162.18V614.286l9.386-9.448h130.771l9.386 9.448v130.646l-9.386 9.448H161.548l-9.386-9.448Zm151.162 0V614.286l9.386-9.448h130.771l9.386 9.448v130.646l-9.386 9.448H312.71l-9.386-9.448ZM1 593.77V463.124l9.386-9.448h130.771l9.386 9.448V593.77l-9.386 9.448H10.387L1 593.77Zm896.094 9.098H766.448L757 593.482V462.711l9.448-9.386h130.646l9.449 9.386v130.771l-9.449 9.386Zm.18-151.162H766.628l-9.448-9.386V311.55l9.448-9.387h130.646l9.448 9.387v130.77l-9.448 9.386Zm0-151.162H766.628l-9.448-9.386V160.387l9.448-9.386h130.646l9.448 9.386v130.771l-9.448 9.386Zm150.816 303H917.448L908 594.158V463.387l9.448-9.386h130.642l9.45 9.386v130.771l-9.45 9.386Zm302-150.678h-130.64l-9.45-9.386V312.709l9.45-9.386h130.64l9.45 9.386V443.48l-9.45 9.386Zm.18-151.162h-130.64l-9.45-9.386v-130.77l9.45-9.386h130.64l9.45 9.386v130.77l-9.45 9.386Zm150.82-151.162h-130.64l-9.45-9.386V10.386L1370.45 1h130.64l9.45 9.386v130.77l-9.45 9.386Zm0 151h-130.64l-9.45-9.386V161.385l9.45-9.386h130.64l9.45 9.386v130.771l-9.45 9.386Z" fill="#FFA360" stroke="#DF654D" stroke-width="2"/><path d="M454.486 744.752V614.106l9.386-9.449h130.771l9.386 9.449v130.646l-9.386 9.448H463.872l-9.386-9.448Zm151.162.18V614.286l9.386-9.448h130.771l9.386 9.448v130.646l-9.386 9.448H615.034l-9.386-9.448Zm151.163 0V614.286l9.386-9.448h130.77l9.386 9.448v130.646l-9.386 9.448h-130.77l-9.386-9.448ZM605.648 593.77V463.124l9.386-9.448h130.771l9.386 9.448V593.77l-9.386 9.448H615.034l-9.386-9.448Z" fill="#FBD73A" stroke="#C7961A" stroke-width="2"/><path d="M907.972 744.752V614.106l9.386-9.449h130.772l9.38 9.449v130.646l-9.38 9.448H917.358l-9.386-9.448Zm151.158.18V614.286l9.39-9.448h130.77l9.39 9.448v130.646l-9.39 9.448h-130.77l-9.39-9.448ZM1210.3 593.77V463.124l9.38-9.448h130.77l9.39 9.448V593.77l-9.39 9.448h-130.77l-9.38-9.448Zm-151.17 0V463.124l9.39-9.448h130.77l9.39 9.448V593.77l-9.39 9.448h-130.77l-9.39-9.448ZM757 141.094V10.448L766.386 1h130.771l9.386 9.448v130.646l-9.386 9.449H766.386L757 141.094Zm151 0V10.448L917.386 1h130.774l9.38 9.448v130.646l-9.38 9.449H917.386L908 141.094Zm302.32 0V10.448L1219.71 1h130.77l9.39 9.448v130.646l-9.39 9.449h-130.77l-9.39-9.449Zm-151.16 0V10.448L1068.55 1h130.77l9.38 9.448v130.646l-9.38 9.449h-130.77l-9.39-9.449Z" fill="#AF87F6" stroke="#532A9D" stroke-width="2"/><path d="M1210.29 744.751V614.105l9.39-9.448h130.77l9.39 9.448v130.646l-9.39 9.448h-130.77l-9.39-9.448Zm151.17.18V614.285l9.38-9.448h130.77l9.39 9.448v130.646l-9.39 9.448h-130.77l-9.38-9.448Zm0-302.323V311.961l9.38-9.448h130.77l9.39 9.448v130.647l-9.39 9.448h-130.77l-9.38-9.448Zm0 151.161V463.123l9.38-9.448h130.77l9.39 9.448v130.646l-9.39 9.449h-130.77l-9.38-9.449ZM908 443.237V312.591l9.386-9.448h130.774l9.38 9.448v130.646l-9.38 9.449H917.386L908 443.237Zm151.16.181V312.771l9.39-9.448h130.77l9.38 9.448v130.647l-9.38 9.448h-130.77l-9.39-9.448ZM908 292.094V161.448l9.386-9.448h130.774l9.38 9.448v130.646l-9.38 9.448H917.386L908 292.094Zm151.16.162V161.61l9.39-9.449h130.77l9.38 9.449v130.646l-9.38 9.448h-130.77l-9.39-9.448Z" fill="#FBD73A" stroke="#C7961A" stroke-width="2"/></svg>