<svg width="93" height="69" fill="none" xmlns="http://www.w3.org/2000/svg"><g filter="url(#a)"><path d="M10.706 4h74.121l-6.677 8.083H4L10.706 4Z" fill="#E56D56"/><path d="M4 12.083h74.15v24.6H4v-24.6Z" fill="#F3B084"/><path d="M28.6 36.682h24.6v24.6H28.6v-24.6Z" fill="#F3B084"/><path d="M53.2 36.682h6.59v16.544l-6.59 8.056v-24.6ZM78.15 36.682V12.05L84.827 4v24.6l-6.677 8.082Z" fill="#FFF8F6"/><path d="M4 12.055V36.67h24.762M4 12.055l74.138.15M4 12.054 10.713 4H85m-6.862 32.669V12.204m0 24.465 6.713-8.056L85 4m-6.862 32.669h-25.06m25.06-24.465L85 4" stroke="#E56D56"/><path d="M28.613 36.532v24.75h24.614m0 0v-24.75m0 24.75 6.563-8.055V36.669" stroke="#E56D56"/></g><defs><filter id="a" x=".5" y=".5" width="92.003" height="68.282" filterUnits="userSpaceOnUse" color-interpolation-filters="sRGB"><feFlood flood-opacity="0" result="BackgroundImageFix"/><feColorMatrix in="SourceAlpha" values="0 0 0 0 0 0 0 0 0 0 0 0 0 0 0 0 0 0 127 0" result="hardAlpha"/><feOffset dx="2" dy="2"/><feGaussianBlur stdDeviation="2.5"/><feComposite in2="hardAlpha" operator="out"/><feColorMatrix values="0 0 0 0 0 0 0 0 0 0 0 0 0 0 0 0 0 0 0.11 0"/><feBlend in2="BackgroundImageFix" result="effect1_dropShadow_307_736"/><feBlend in="SourceGraphic" in2="effect1_dropShadow_307_736" result="shape"/></filter></defs></svg>