<svg width="123" height="183" fill="none" xmlns="http://www.w3.org/2000/svg"><path d="m0 126.545 4.041-4.068h53.347l4.041 4.068v53.293l-4.041 4.068H4.041L0 179.838v-53.293Z" fill="#FBD73A" fill-opacity=".6"/><path d="M1 179.426v-52.468l3.458-3.481h52.514l3.457 3.481v52.468l-3.457 3.48H4.458L1 179.426Z" stroke="#C7961A" stroke-opacity=".6" stroke-width="2"/><path d="m61.275 126.618 4.042-4.068h53.346l4.042 4.068v53.294l-4.042 4.068H65.317l-4.042-4.068v-53.294Z" fill="#FBD73A" fill-opacity=".6"/><path d="M62.275 179.499v-52.468l3.458-3.481h52.514l3.458 3.481v52.468l-3.458 3.481H65.733l-3.458-3.481Z" stroke="#C7961A" stroke-opacity=".6" stroke-width="2"/><path d="M61.275 4.068 65.317 0h53.346l4.042 4.068v53.293l-4.042 4.068H65.317l-4.042-4.068V4.068Z" fill="#FBD73A" fill-opacity=".6"/><path d="M62.275 56.949V4.48L65.733 1h52.514l3.458 3.48V56.95l-3.458 3.48H65.733l-3.458-3.48Z" stroke="#C7961A" stroke-opacity=".6" stroke-width="2"/><path d="m61.275 65.343 4.042-4.068h53.346l4.042 4.068v53.293l-4.042 4.068H65.317l-4.042-4.068V65.343Z" fill="#FBD73A" fill-opacity=".6"/><path d="M62.275 118.224V65.755l3.458-3.48h52.514l3.458 3.48v52.469l-3.458 3.48H65.733l-3.458-3.48Z" stroke="#C7961A" stroke-opacity=".6" stroke-width="2"/></svg>