<svg width="158" height="106" fill="none" xmlns="http://www.w3.org/2000/svg"><path d="m0 56.053 3.47-3.493h45.814l3.471 3.493v45.768l-3.47 3.494H3.47L0 101.821V56.053Z" fill="#AF87F6" fill-opacity=".6"/><path d="M1 101.409V56.466l2.887-2.906h44.981l2.887 2.906v44.943l-2.887 2.906H3.887L1 101.409Z" stroke="#532A9D" stroke-opacity=".6" stroke-width="2"/><path d="m52.622 56.116 3.471-3.493h45.814l3.47 3.493v45.768l-3.47 3.494H56.093l-3.47-3.494V56.116Z" fill="#AF87F6" fill-opacity=".6"/><path d="M53.622 101.472V56.529l2.887-2.906h44.982l2.886 2.906v44.943l-2.886 2.906H56.509l-2.887-2.906Z" stroke="#532A9D" stroke-opacity=".6" stroke-width="2"/><path d="M105.245 3.494 108.716 0h45.813L158 3.494V49.26l-3.471 3.494h-45.813l-3.471-3.494V3.494Z" fill="#AF87F6" fill-opacity=".6"/><path d="M106.245 48.849V3.906L109.132 1h44.981L157 3.906v44.943l-2.887 2.906h-44.981l-2.887-2.906Z" stroke="#532A9D" stroke-opacity=".6" stroke-width="2"/><path d="M52.622 3.494 56.093 0h45.814l3.47 3.494V49.26l-3.47 3.494H56.093l-3.47-3.494V3.494Z" fill="#AF87F6" fill-opacity=".6"/><path d="M53.622 48.849V3.906L56.51 1h44.982l2.886 2.906v44.943l-2.886 2.906H56.509l-2.887-2.906Z" stroke="#532A9D" stroke-opacity=".6" stroke-width="2"/></svg>