<svg width="158" height="106" viewBox="0 0 158 106" fill="none" xmlns="http://www.w3.org/2000/svg">
<path d="M0 56.0533L3.47072 52.5596H49.2843L52.755 56.0533V101.821L49.2843 105.315H3.47072L0 101.821V56.0533Z" fill="#AF87F6" fill-opacity="0.6"/>
<path d="M1 101.409V56.4656L3.88687 53.5596H48.8681L51.755 56.4656V101.409L48.8681 104.315H3.88687L1 101.409Z" stroke="#532A9D" stroke-opacity="0.6" stroke-width="2"/>
<path d="M52.6224 56.1163L56.0932 52.6226H101.907L105.377 56.1163V101.884L101.907 105.378H56.0932L52.6224 101.884V56.1163Z" fill="#AF87F6" fill-opacity="0.6"/>
<path d="M53.6224 101.472V56.5285L56.5093 53.6226H101.491L104.377 56.5285V101.472L101.491 104.378H56.5093L53.6224 101.472Z" stroke="#532A9D" stroke-opacity="0.6" stroke-width="2"/>
<path d="M105.245 3.49371L108.716 0H154.529L158 3.49371V49.2613L154.529 52.755H108.716L105.245 49.2613V3.49371Z" fill="#AF87F6" fill-opacity="0.6"/>
<path d="M106.245 48.849V3.90599L109.132 1H154.113L157 3.90599V48.849L154.113 51.755H109.132L106.245 48.849Z" stroke="#532A9D" stroke-opacity="0.6" stroke-width="2"/>
<path d="M52.6224 3.49371L56.0932 0H101.907L105.377 3.49371V49.2613L101.907 52.755H56.0932L52.6224 49.2613V3.49371Z" fill="#AF87F6" fill-opacity="0.6"/>
<path d="M53.6224 48.849V3.90599L56.5093 1H101.491L104.377 3.90599V48.849L101.491 51.755H56.5093L53.6224 48.849Z" stroke="#532A9D" stroke-opacity="0.6" stroke-width="2"/>
</svg>
