<svg width="113" height="186" fill="none" xmlns="http://www.w3.org/2000/svg"><path d="M3.748 185.215 0 181.147v-53.705l3.748-4.069h49.105l3.748 4.069v53.705l-3.748 4.068H3.748Z" fill="#FFA360" fill-opacity=".6"/><path d="M52.414 184.215H4.188L1 180.756v-52.924l3.187-3.459h48.227l3.187 3.459v52.924l-3.187 3.459Z" stroke="#DF654D" stroke-opacity=".6" stroke-width="2"/><path d="M3.816 123.529.067 119.46V65.755l3.749-4.068H52.92l3.748 4.068v53.705l-3.748 4.069H3.816Z" fill="#FFA360" fill-opacity=".6"/><path d="M52.482 122.529H4.254l-3.187-3.459V66.146l3.187-3.46h48.228l3.186 3.46v52.924l-3.186 3.459Z" stroke="#DF654D" stroke-opacity=".6" stroke-width="2"/><path d="M60.147 61.842 56.4 57.773V4.068L60.147 0h49.105L113 4.068v53.705l-3.748 4.069H60.147Z" fill="#FFA360" fill-opacity=".6"/><path d="M108.813 60.842H60.586l-3.187-3.46V4.46l3.187-3.46h48.227L112 4.46v52.924l-3.187 3.459Z" stroke="#DF654D" stroke-opacity=".6" stroke-width="2"/><path d="m60.147 123.462-3.748-4.068V65.689l3.748-4.069h49.105L113 65.69v53.705l-3.748 4.068H60.147Z" fill="#FFA360" fill-opacity=".6"/><path d="M108.813 122.462H60.586l-3.187-3.459V66.079l3.187-3.459h48.227L112 66.08v52.923l-3.187 3.459Z" stroke="#DF654D" stroke-opacity=".6" stroke-width="2"/></svg>