<svg width="113" height="186" viewBox="0 0 113 186" fill="none" xmlns="http://www.w3.org/2000/svg">
<path d="M3.74843 185.215L-1.77842e-07 181.147L-2.52536e-06 127.442L3.74843 123.373L52.8529 123.373L56.6013 127.442L56.6013 181.147L52.8529 185.215L3.74843 185.215Z" fill="#FFA360" fill-opacity="0.6"/>
<path d="M52.4145 184.215L4.18683 184.215L1 180.756L0.999997 127.832L4.18683 124.373L52.4145 124.373L55.6013 127.832L55.6013 180.756L52.4145 184.215Z" stroke="#DF654D" stroke-opacity="0.6" stroke-width="2"/>
<path d="M3.81557 123.529L0.0671385 119.46L0.0671361 65.7552L3.81557 61.6867L52.92 61.6867L56.6684 65.7552L56.6684 119.46L52.92 123.529L3.81557 123.529Z" fill="#FFA360" fill-opacity="0.6"/>
<path d="M52.4816 122.529L4.25397 122.529L1.06714 119.07L1.06714 66.1457L4.25397 62.6867L52.4816 62.6867L55.6684 66.1457L55.6684 119.07L52.4816 122.529Z" stroke="#DF654D" stroke-opacity="0.6" stroke-width="2"/>
<path d="M60.1471 61.8418L56.3987 57.7732L56.3987 4.06823L60.1471 -0.000328228L109.252 -0.000330374L113 4.06823L113 57.7732L109.252 61.8418L60.1471 61.8418Z" fill="#FFA360" fill-opacity="0.6"/>
<path d="M108.813 60.8418L60.5855 60.8418L57.3987 57.3828L57.3987 4.45867L60.5855 0.999672L108.813 0.99967L112 4.45867L112 57.3828L108.813 60.8418Z" stroke="#DF654D" stroke-opacity="0.6" stroke-width="2"/>
<path d="M60.1471 123.462L56.3987 119.394L56.3987 65.6888L60.1471 61.6203L109.252 61.6203L113 65.6888L113 119.394L109.252 123.462L60.1471 123.462Z" fill="#FFA360" fill-opacity="0.6"/>
<path d="M108.813 122.462L60.5855 122.462L57.3987 119.003L57.3987 66.0793L60.5855 62.6203L108.813 62.6203L112 66.0793L112 119.003L108.813 122.462Z" stroke="#DF654D" stroke-opacity="0.6" stroke-width="2"/>
</svg>
