<svg width="551" height="439" fill="none" xmlns="http://www.w3.org/2000/svg"><g clip-path="url(#a)"><path d="M352.541 154.237c.544.249 1.067.54 1.564.872l49.704-21.215 1.773-13.094 19.861-.122-1.173 30.034-65.605 17.353a11.87 11.87 0 0 1-.496 1.338 11.338 11.338 0 0 1-10.74 6.519 11.343 11.343 0 1 1 5.112-21.683v-.002ZM432.666 426.385h-13.587l-6.463-52.408h20.051l-.001 52.408Z" fill="#A0616A"/><path d="M409.375 422.502h26.202v16.493h-42.7a16.498 16.498 0 0 1 16.498-16.499v.006Z" fill="#2F2E41"/><path d="m485.503 422.545-13.519 1.33-11.569-51.522 19.955-1.96 5.133 52.152Z" fill="#A0616A"/><path d="m461.937 420.967 26.071-2.569 1.617 16.417L447.14 439a16.495 16.495 0 0 1 14.797-18.033Z" fill="#2F2E41"/><path d="M436.447 65.212c15.032 0 27.218-12.187 27.218-27.22 0-15.034-12.186-27.22-27.218-27.22s-27.218 12.186-27.218 27.22c0 15.033 12.186 27.22 27.218 27.22Z" fill="#A0616A"/><path d="M416.043 415.784a4.96 4.96 0 0 1-4.893-4.101c-7.028-39.032-30.018-166.685-30.568-170.224a1.546 1.546 0 0 1-.019-.245v-9.519c0-.347.108-.685.31-.967l3.036-4.25a1.641 1.641 0 0 1 1.268-.693c17.315-.811 74.009-3.191 76.748.232 2.751 3.435 1.773 13.861 1.551 15.915l.011.214 25.473 162.915a4.997 4.997 0 0 1-4.118 5.69l-15.909 2.621a5.007 5.007 0 0 1-5.569-3.428c-4.921-15.724-21.42-68.622-27.139-89.091a.55.55 0 0 0-.964-.224.55.55 0 0 0-.123.382c.286 19.512.976 69.292 1.22 86.486l.025 1.852a5.01 5.01 0 0 1-4.536 5.028l-15.341 1.39a4.776 4.776 0 0 1-.463.017Z" fill="#2F2E41"/><path d="M419.174 75.915c-4.75 2.825-7.593 8.013-9.223 13.302a126.01 126.01 0 0 0-5.413 30.1l-1.724 30.586-21.339 81.093c18.495 15.65 29.162 12.092 54.058-.708 24.896-12.801 27.74 4.267 27.74 4.267l4.977-68.999 7.113-75.398a33.444 33.444 0 0 0-5.388-5.18 55.03 55.03 0 0 0-47.034-9.975l-3.767.912Z" fill="#AF87F6"/><path d="M412.243 170.614c.574.215 1.129.474 1.662.776l49.148-24.604.815-13.328 20.273-1.397 1.086 30.381-65.677 21.724a11.639 11.639 0 0 1-9.792 8.896 11.635 11.635 0 0 1-10.327-19.163 11.636 11.636 0 0 1 12.813-3.289l-.001.004Z" fill="#A0616A"/><path d="M475.008 90.497c12.092 4.267 14.223 50.508 14.223 50.508-14.226-7.824-31.296 4.98-31.296 4.98s-3.556-12.094-7.824-27.742a27.183 27.183 0 0 1 5.689-25.609s7.116-6.407 19.208-2.137Z" fill="#AF87F6"/><path d="M460.848 45.188c-3.391-2.713-8.018 2.216-8.018 2.216l-2.713-24.412s-16.954 2.031-27.808-.679-12.548 9.839-12.548 9.839a87.045 87.045 0 0 1-.339-15.263c.678-6.104 9.495-12.21 25.094-16.28 15.6-4.07 23.739 13.567 23.739 13.567 10.857 5.423 5.988 33.728 2.593 31.012Z" fill="#2F2E41"/><path d="M302.17 17.159c0 5.93-4.605 10.737-10.285 10.737-5.681 0-10.285-4.807-10.285-10.737 0-.135.002-.268.007-.401.104-5.93 4.794-10.646 10.474-10.535 5.679.11 10.197 5.007 10.09 10.936h-.001Z" fill="#3F7389"/><path d="m288.263 21.927-2.962-3.95.701-.527 2.414 3.218 9.501-7.773.556.678-10.21 8.354Z" fill="#fff"/><path d="M301.383 106.887c0 5.93-4.605 10.738-10.285 10.738s-10.285-4.808-10.285-10.738c0-.134.002-.268.008-.401.104-5.929 4.794-10.646 10.473-10.535 5.679.11 10.197 5.007 10.091 10.936h-.002Z" fill="#3F7389"/><path d="m287.476 111.655-2.962-3.95.701-.526 2.414 3.218 9.501-7.774.556.679-10.21 8.353Z" fill="#fff"/><path d="M301.383 196.616c0 5.93-4.605 10.737-10.285 10.737s-10.285-4.807-10.285-10.737c0-.135.002-.268.008-.402.104-5.929 4.794-10.645 10.473-10.534 5.679.11 10.197 5.007 10.091 10.936h-.002Z" fill="#3F7389"/><path d="m287.476 201.384-2.962-3.95.701-.527 2.414 3.218 9.501-7.773.556.679-10.21 8.353ZM11.958 35.746c-1.053.001-2.063.237-2.807.656-.745.419-1.163.986-1.163 1.578 0 .592.418 1.16 1.163 1.579.744.418 1.754.654 2.807.655H302.34c1.054 0 2.064-.237 2.808-.655.744-.42 1.162-.987 1.162-1.579s-.418-1.16-1.162-1.578c-.744-.419-1.754-.655-2.808-.656H11.959ZM11.959 50.268c-1.052 0-2.06.292-2.805.815-.744.522-1.163 1.231-1.166 1.971-.002.74.413 1.45 1.154 1.975.742.525 1.749.821 2.8.824H195.08c.521 0 1.037-.072 1.519-.213.481-.14.918-.346 1.287-.605.368-.26.661-.567.86-.906.199-.339.302-.702.302-1.069s-.103-.73-.302-1.069a2.963 2.963 0 0 0-.86-.905 4.369 4.369 0 0 0-1.287-.606 5.459 5.459 0 0 0-1.519-.212H11.959ZM11.958 125.109c-1.053.002-2.063.297-2.807.82-.745.524-1.163 1.233-1.163 1.973s.418 1.449 1.163 1.973c.744.523 1.754.818 2.807.82H302.34c1.054-.002 2.064-.297 2.808-.82.744-.524 1.162-1.233 1.162-1.973s-.418-1.449-1.162-1.973c-.744-.523-1.754-.818-2.808-.82H11.959ZM11.959 140.748c-1.052 0-2.06.234-2.805.652-.744.418-1.163.985-1.166 1.577-.002.592.413 1.161 1.154 1.58.742.42 1.749.657 2.8.659H195.08c1.053 0 2.062-.235 2.806-.654.744-.419 1.162-.987 1.162-1.58 0-.592-.418-1.161-1.162-1.58-.744-.419-1.753-.654-2.806-.654H11.959ZM11.958 215.59c-1.053.001-2.063.237-2.807.656-.745.418-1.163.986-1.163 1.578 0 .592.418 1.159 1.163 1.578.744.419 1.754.655 2.807.656H302.34c1.054-.001 2.064-.237 2.808-.656.744-.419 1.162-.986 1.162-1.578 0-.592-.418-1.16-1.162-1.578-.744-.419-1.754-.655-2.808-.656H11.959ZM11.959 230.111c-1.052 0-2.06.234-2.805.652-.744.418-1.163.986-1.166 1.578-.002.592.413 1.16 1.154 1.58.742.42 1.749.656 2.8.659H195.08c1.053 0 2.062-.236 2.806-.655.744-.419 1.162-.987 1.162-1.58 0-.592-.418-1.16-1.162-1.579-.744-.419-1.753-.655-2.806-.655H11.959Z" fill="#fff"/></g><defs><clipPath id="a"><path fill="#fff" transform="translate(-30)" d="M0 0h581v439H0z"/></clipPath></defs></svg>